<svg width="1600" height="434" viewBox="0 0 1600 434" version="1.1" xmlns="http://www.w3.org/2000/svg" xmlns:xlink="http://www.w3.org/1999/xlink">
<title>Frame</title>
<desc>Created using Figma</desc>
<g id="Canvas" transform="matrix(2 0 0 2 404 812)">
<clipPath id="clip-0" clip-rule="evenodd">
<path d="M -202 -406L 598 -406L 598 -189L -202 -189L -202 -406Z" fill="#FFFFFF"/>
</clipPath>
<g id="Frame" clip-path="url(#clip-0)">
<path d="M -202 -406L 598 -406L 598 -189L -202 -189L -202 -406Z" fill="#FFFFFF"/>
<g id="Rectangle">
<use xlink:href="#path0_fill" transform="translate(-27 -367)" fill="#EB5757"/>
</g>
<g id="Python Interpreter">
<use xlink:href="#path1_fill" transform="translate(-4 -315)" fill="#FFFFFF"/>
</g>
<g id="Rectangle">
<use xlink:href="#path0_fill" transform="translate(277 -367)" fill="#2D9CDB"/>
</g>
<g id="Computer Processor">
<use xlink:href="#path2_fill" transform="translate(300 -315)" fill="#FFFFFF"/>
</g>
<g id="Arrow">
<use xlink:href="#path3_stroke" transform="matrix(1 -3.27196e-16 1.83347e-16 1 -170 -298)"/>
</g>
<g id="Arrow">
<use xlink:href="#path3_stroke" transform="matrix(1 -3.27196e-16 1.83347e-16 1 135 -296)"/>
</g>
<g id="Python code">
<use xlink:href="#path4_fill" transform="translate(-174 -326)"/>
</g>
<g id="Bytecode">
<use xlink:href="#path5_fill" transform="translate(156 -321)"/>
</g>
<g id="Arrow">
<use xlink:href="#path3_stroke" transform="matrix(1 -3.27196e-16 1.83347e-16 1 440 -296)"/>
</g>
<g id="Result of Operation">
<use xlink:href="#path6_fill" transform="translate(459 -342)"/>
</g>
</g>
</g>
<defs>
<path id="path0_fill" d="M 0 0L 152 0L 152 139L 0 139L 0 0Z"/>
<path id="path1_fill" d="M 27.6621 11.9902L 27.6621 17L 25.9746 17L 25.9746 4.20312L 30.6943 4.20312C 32.0947 4.20312 33.1904 4.56055 33.9814 5.27539C 34.7783 5.99023 35.1768 6.93652 35.1768 8.11426C 35.1768 9.35645 34.7871 10.3145 34.0078 10.9883C 33.2344 11.6562 32.124 11.9902 30.6768 11.9902L 27.6621 11.9902ZM 27.6621 10.6104L 30.6943 10.6104C 31.5967 10.6104 32.2881 10.3994 32.7686 9.97754C 33.249 9.5498 33.4893 8.93457 33.4893 8.13184C 33.4893 7.37012 33.249 6.76074 32.7686 6.30371C 32.2881 5.84668 31.6289 5.60938 30.791 5.5918L 27.6621 5.5918L 27.6621 10.6104ZM 40.3271 14.6182L 42.542 7.49023L 44.2822 7.49023L 40.459 18.4678C 39.8672 20.0498 38.9268 20.8408 37.6377 20.8408L 37.3301 20.8145L 36.7236 20.7002L 36.7236 19.3818L 37.1631 19.417C 37.7139 19.417 38.1416 19.3057 38.4463 19.083C 38.7568 18.8604 39.0117 18.4531 39.2109 17.8613L 39.5713 16.8945L 36.1787 7.49023L 37.9541 7.49023L 40.3271 14.6182ZM 47.9473 5.1875L 47.9473 7.49023L 49.7227 7.49023L 49.7227 8.74707L 47.9473 8.74707L 47.9473 14.6445C 47.9473 15.0254 48.0264 15.3125 48.1846 15.5059C 48.3428 15.6934 48.6123 15.7871 48.9932 15.7871C 49.1807 15.7871 49.4385 15.752 49.7666 15.6816L 49.7666 17C 49.3389 17.1172 48.9229 17.1758 48.5186 17.1758C 47.792 17.1758 47.2441 16.9561 46.875 16.5166C 46.5059 16.0771 46.3213 15.4531 46.3213 14.6445L 46.3213 8.74707L 44.5898 8.74707L 44.5898 7.49023L 46.3213 7.49023L 46.3213 5.1875L 47.9473 5.1875ZM 53.2559 8.6416C 53.9766 7.75684 54.9141 7.31445 56.0684 7.31445C 58.0781 7.31445 59.0918 8.44824 59.1094 10.7158L 59.1094 17L 57.4834 17L 57.4834 10.707C 57.4775 10.0215 57.3193 9.51465 57.0088 9.18652C 56.7041 8.8584 56.2266 8.69434 55.5762 8.69434C 55.0488 8.69434 54.5859 8.83496 54.1875 9.11621C 53.7891 9.39746 53.4785 9.7666 53.2559 10.2236L 53.2559 17L 51.6299 17L 51.6299 3.5L 53.2559 3.5L 53.2559 8.6416ZM 61.1133 12.1572C 61.1133 11.2256 61.2949 10.3877 61.6582 9.64355C 62.0273 8.89941 62.5371 8.3252 63.1875 7.9209C 63.8437 7.5166 64.5908 7.31445 65.4287 7.31445C 66.7236 7.31445 67.7695 7.7627 68.5664 8.65918C 69.3691 9.55566 69.7705 10.748 69.7705 12.2363L 69.7705 12.3506C 69.7705 13.2764 69.5918 14.1084 69.2344 14.8467C 68.8828 15.5791 68.376 16.1504 67.7139 16.5605C 67.0576 16.9707 66.3018 17.1758 65.4463 17.1758C 64.1572 17.1758 63.1113 16.7275 62.3086 15.8311C 61.5117 14.9346 61.1133 13.748 61.1133 12.2715L 61.1133 12.1572ZM 62.748 12.3506C 62.748 13.4053 62.9912 14.252 63.4775 14.8906C 63.9697 15.5293 64.626 15.8486 65.4463 15.8486C 66.2725 15.8486 66.9287 15.5264 67.415 14.8818C 67.9014 14.2314 68.1445 13.3232 68.1445 12.1572C 68.1445 11.1143 67.8955 10.2705 67.3975 9.62598C 66.9053 8.97559 66.249 8.65039 65.4287 8.65039C 64.626 8.65039 63.9785 8.96973 63.4863 9.6084C 62.9941 10.2471 62.748 11.1611 62.748 12.3506ZM 73.3477 7.49023L 73.4004 8.68555C 74.127 7.77148 75.0762 7.31445 76.248 7.31445C 78.2578 7.31445 79.2715 8.44824 79.2891 10.7158L 79.2891 17L 77.6631 17L 77.6631 10.707C 77.6572 10.0215 77.499 9.51465 77.1885 9.18652C 76.8838 8.8584 76.4062 8.69434 75.7559 8.69434C 75.2285 8.69434 74.7656 8.83496 74.3672 9.11621C 73.9687 9.39746 73.6582 9.7666 73.4355 10.2236L 73.4355 17L 71.8096 17L 71.8096 7.49023L 73.3477 7.49023ZM 14.0566 38L 12.3691 38L 12.3691 25.2031L 14.0566 25.2031L 14.0566 38ZM 18.4336 28.4902L 18.4863 29.6855C 19.2129 28.7715 20.1621 28.3145 21.334 28.3145C 23.3438 28.3145 24.3574 29.4482 24.375 31.7158L 24.375 38L 22.749 38L 22.749 31.707C 22.7432 31.0215 22.585 30.5146 22.2744 30.1865C 21.9697 29.8584 21.4922 29.6943 20.8418 29.6943C 20.3145 29.6943 19.8516 29.835 19.4531 30.1162C 19.0547 30.3975 18.7441 30.7666 18.5215 31.2236L 18.5215 38L 16.8955 38L 16.8955 28.4902L 18.4336 28.4902ZM 29.0332 26.1875L 29.0332 28.4902L 30.8086 28.4902L 30.8086 29.7471L 29.0332 29.7471L 29.0332 35.6445C 29.0332 36.0254 29.1123 36.3125 29.2705 36.5059C 29.4287 36.6934 29.6982 36.7871 30.0791 36.7871C 30.2666 36.7871 30.5244 36.752 30.8525 36.6816L 30.8525 38C 30.4248 38.1172 30.0088 38.1758 29.6045 38.1758C 28.8779 38.1758 28.3301 37.9561 27.9609 37.5166C 27.5918 37.0771 27.4072 36.4531 27.4072 35.6445L 27.4072 29.7471L 25.6758 29.7471L 25.6758 28.4902L 27.4072 28.4902L 27.4072 26.1875L 29.0332 26.1875ZM 36.6621 38.1758C 35.373 38.1758 34.3242 37.7539 33.5156 36.9102C 32.707 36.0605 32.3027 34.9268 32.3027 33.5088L 32.3027 33.21C 32.3027 32.2666 32.4814 31.4258 32.8389 30.6875C 33.2021 29.9434 33.7061 29.3633 34.3506 28.9473C 35.001 28.5254 35.7041 28.3145 36.46 28.3145C 37.6963 28.3145 38.6572 28.7217 39.3428 29.5361C 40.0283 30.3506 40.3711 31.5166 40.3711 33.0342L 40.3711 33.7109L 33.9287 33.7109C 33.9521 34.6484 34.2246 35.4072 34.7461 35.9873C 35.2734 36.5615 35.9414 36.8486 36.75 36.8486C 37.3242 36.8486 37.8105 36.7314 38.209 36.4971C 38.6074 36.2627 38.9561 35.9521 39.2549 35.5654L 40.248 36.3389C 39.4512 37.5635 38.2559 38.1758 36.6621 38.1758ZM 36.46 29.6504C 35.8037 29.6504 35.2529 29.8906 34.8076 30.3711C 34.3623 30.8457 34.0869 31.5137 33.9814 32.375L 38.7451 32.375L 38.7451 32.252C 38.6982 31.4258 38.4756 30.7871 38.0771 30.3359C 37.6787 29.8789 37.1396 29.6504 36.46 29.6504ZM 46.8574 29.9492C 46.6113 29.9082 46.3447 29.8877 46.0576 29.8877C 44.9912 29.8877 44.2676 30.3418 43.8867 31.25L 43.8867 38L 42.2607 38L 42.2607 28.4902L 43.8428 28.4902L 43.8691 29.5889C 44.4023 28.7393 45.1582 28.3145 46.1367 28.3145C 46.4531 28.3145 46.6934 28.3555 46.8574 28.4375L 46.8574 29.9492ZM 56.3936 33.3506C 56.3936 34.7979 56.0625 35.9639 55.4004 36.8486C 54.7383 37.7334 53.8418 38.1758 52.7109 38.1758C 51.5566 38.1758 50.6484 37.8096 49.9863 37.0771L 49.9863 41.6562L 48.3604 41.6562L 48.3604 28.4902L 49.8457 28.4902L 49.9248 29.5449C 50.5869 28.7246 51.5068 28.3145 52.6846 28.3145C 53.8271 28.3145 54.7295 28.7451 55.3916 29.6064C 56.0596 30.4678 56.3936 31.666 56.3936 33.2012L 56.3936 33.3506ZM 54.7676 33.166C 54.7676 32.0938 54.5391 31.2471 54.082 30.626C 53.625 30.0049 52.998 29.6943 52.2012 29.6943C 51.2168 29.6943 50.4785 30.1309 49.9863 31.0039L 49.9863 35.5479C 50.4727 36.415 51.2168 36.8486 52.2188 36.8486C 52.998 36.8486 53.6162 36.541 54.0732 35.9258C 54.5361 35.3047 54.7676 34.3848 54.7676 33.166ZM 63.0645 29.9492C 62.8184 29.9082 62.5518 29.8877 62.2646 29.8877C 61.1982 29.8877 60.4746 30.3418 60.0938 31.25L 60.0938 38L 58.4678 38L 58.4678 28.4902L 60.0498 28.4902L 60.0762 29.5889C 60.6094 28.7393 61.3652 28.3145 62.3438 28.3145C 62.6602 28.3145 62.9004 28.3555 63.0645 28.4375L 63.0645 29.9492ZM 68.3379 38.1758C 67.0488 38.1758 66 37.7539 65.1914 36.9102C 64.3828 36.0605 63.9785 34.9268 63.9785 33.5088L 63.9785 33.21C 63.9785 32.2666 64.1572 31.4258 64.5146 30.6875C 64.8779 29.9434 65.3818 29.3633 66.0264 28.9473C 66.6768 28.5254 67.3799 28.3145 68.1357 28.3145C 69.3721 28.3145 70.333 28.7217 71.0186 29.5361C 71.7041 30.3506 72.0469 31.5166 72.0469 33.0342L 72.0469 33.7109L 65.6045 33.7109C 65.6279 34.6484 65.9004 35.4072 66.4219 35.9873C 66.9492 36.5615 67.6172 36.8486 68.4258 36.8486C 69 36.8486 69.4863 36.7314 69.8848 36.4971C 70.2832 36.2627 70.6318 35.9521 70.9307 35.5654L 71.9238 36.3389C 71.127 37.5635 69.9316 38.1758 68.3379 38.1758ZM 68.1357 29.6504C 67.4795 29.6504 66.9287 29.8906 66.4834 30.3711C 66.0381 30.8457 65.7627 31.5137 65.6572 32.375L 70.4209 32.375L 70.4209 32.252C 70.374 31.4258 70.1514 30.7871 69.7529 30.3359C 69.3545 29.8789 68.8154 29.6504 68.1357 29.6504ZM 76.1426 26.1875L 76.1426 28.4902L 77.918 28.4902L 77.918 29.7471L 76.1426 29.7471L 76.1426 35.6445C 76.1426 36.0254 76.2217 36.3125 76.3799 36.5059C 76.5381 36.6934 76.8076 36.7871 77.1885 36.7871C 77.376 36.7871 77.6338 36.752 77.9619 36.6816L 77.9619 38C 77.5342 38.1172 77.1182 38.1758 76.7139 38.1758C 75.9873 38.1758 75.4395 37.9561 75.0703 37.5166C 74.7012 37.0771 74.5166 36.4531 74.5166 35.6445L 74.5166 29.7471L 72.7852 29.7471L 72.7852 28.4902L 74.5166 28.4902L 74.5166 26.1875L 76.1426 26.1875ZM 83.7715 38.1758C 82.4824 38.1758 81.4336 37.7539 80.625 36.9102C 79.8164 36.0605 79.4121 34.9268 79.4121 33.5088L 79.4121 33.21C 79.4121 32.2666 79.5908 31.4258 79.9482 30.6875C 80.3115 29.9434 80.8154 29.3633 81.46 28.9473C 82.1104 28.5254 82.8135 28.3145 83.5693 28.3145C 84.8057 28.3145 85.7666 28.7217 86.4521 29.5361C 87.1377 30.3506 87.4805 31.5166 87.4805 33.0342L 87.4805 33.7109L 81.0381 33.7109C 81.0615 34.6484 81.334 35.4072 81.8555 35.9873C 82.3828 36.5615 83.0508 36.8486 83.8594 36.8486C 84.4336 36.8486 84.9199 36.7314 85.3184 36.4971C 85.7168 36.2627 86.0654 35.9521 86.3643 35.5654L 87.3574 36.3389C 86.5605 37.5635 85.3652 38.1758 83.7715 38.1758ZM 83.5693 29.6504C 82.9131 29.6504 82.3623 29.8906 81.917 30.3711C 81.4717 30.8457 81.1963 31.5137 81.0908 32.375L 85.8545 32.375L 85.8545 32.252C 85.8076 31.4258 85.585 30.7871 85.1865 30.3359C 84.7881 29.8789 84.249 29.6504 83.5693 29.6504ZM 93.9668 29.9492C 93.7207 29.9082 93.4541 29.8877 93.167 29.8877C 92.1006 29.8877 91.377 30.3418 90.9961 31.25L 90.9961 38L 89.3701 38L 89.3701 28.4902L 90.9521 28.4902L 90.9785 29.5889C 91.5117 28.7393 92.2676 28.3145 93.2461 28.3145C 93.5625 28.3145 93.8027 28.3555 93.9668 28.4375L 93.9668 29.9492Z"/>
<path id="path2_fill" d="M 23.7246 12.9395C 23.5664 14.293 23.0654 15.3389 22.2217 16.0771C 21.3838 16.8096 20.2676 17.1758 18.873 17.1758C 17.3613 17.1758 16.1484 16.6338 15.2344 15.5498C 14.3262 14.4658 13.8721 13.0156 13.8721 11.1992L 13.8721 9.96875C 13.8721 8.7793 14.083 7.7334 14.5049 6.83105C 14.9326 5.92871 15.5361 5.2373 16.3154 4.75684C 17.0947 4.27051 17.9971 4.02734 19.0225 4.02734C 20.3818 4.02734 21.4717 4.4082 22.292 5.16992C 23.1123 5.92578 23.5898 6.97461 23.7246 8.31641L 22.0283 8.31641C 21.8818 7.29688 21.5625 6.55859 21.0703 6.10156C 20.584 5.64453 19.9014 5.41602 19.0225 5.41602C 17.9443 5.41602 17.0977 5.81445 16.4824 6.61133C 15.873 7.4082 15.5684 8.54199 15.5684 10.0127L 15.5684 11.252C 15.5684 12.6406 15.8584 13.7451 16.4385 14.5654C 17.0186 15.3857 17.8301 15.7959 18.873 15.7959C 19.8105 15.7959 20.5283 15.585 21.0264 15.1631C 21.5303 14.7354 21.8643 13.9941 22.0283 12.9395L 23.7246 12.9395ZM 25.3506 12.1572C 25.3506 11.2256 25.5322 10.3877 25.8955 9.64355C 26.2646 8.89941 26.7744 8.3252 27.4248 7.9209C 28.0811 7.5166 28.8281 7.31445 29.666 7.31445C 30.9609 7.31445 32.0068 7.7627 32.8037 8.65918C 33.6064 9.55566 34.0078 10.748 34.0078 12.2363L 34.0078 12.3506C 34.0078 13.2764 33.8291 14.1084 33.4717 14.8467C 33.1201 15.5791 32.6133 16.1504 31.9512 16.5605C 31.2949 16.9707 30.5391 17.1758 29.6836 17.1758C 28.3945 17.1758 27.3486 16.7275 26.5459 15.8311C 25.749 14.9346 25.3506 13.748 25.3506 12.2715L 25.3506 12.1572ZM 26.9854 12.3506C 26.9854 13.4053 27.2285 14.252 27.7148 14.8906C 28.207 15.5293 28.8633 15.8486 29.6836 15.8486C 30.5098 15.8486 31.166 15.5264 31.6523 14.8818C 32.1387 14.2314 32.3818 13.3232 32.3818 12.1572C 32.3818 11.1143 32.1328 10.2705 31.6348 9.62598C 31.1426 8.97559 30.4863 8.65039 29.666 8.65039C 28.8633 8.65039 28.2158 8.96973 27.7236 9.6084C 27.2314 10.2471 26.9854 11.1611 26.9854 12.3506ZM 37.5762 7.49023L 37.6201 8.54492C 38.3174 7.72461 39.2578 7.31445 40.4414 7.31445C 41.7715 7.31445 42.6768 7.82422 43.1572 8.84375C 43.4736 8.38672 43.8838 8.01758 44.3877 7.73633C 44.8975 7.45508 45.498 7.31445 46.1895 7.31445C 48.2754 7.31445 49.3359 8.41895 49.3711 10.6279L 49.3711 17L 47.7451 17L 47.7451 10.7246C 47.7451 10.0449 47.5898 9.53809 47.2793 9.2041C 46.9687 8.86426 46.4473 8.69434 45.7148 8.69434C 45.1113 8.69434 44.6104 8.87598 44.2119 9.23926C 43.8135 9.59668 43.582 10.0801 43.5176 10.6895L 43.5176 17L 41.8828 17L 41.8828 10.7686C 41.8828 9.38574 41.2061 8.69434 39.8525 8.69434C 38.7861 8.69434 38.0566 9.14844 37.6641 10.0566L 37.6641 17L 36.0381 17L 36.0381 7.49023L 37.5762 7.49023ZM 59.8652 12.3506C 59.8652 13.7979 59.5342 14.9639 58.8721 15.8486C 58.21 16.7334 57.3135 17.1758 56.1826 17.1758C 55.0283 17.1758 54.1201 16.8096 53.458 16.0771L 53.458 20.6562L 51.832 20.6562L 51.832 7.49023L 53.3174 7.49023L 53.3965 8.54492C 54.0586 7.72461 54.9785 7.31445 56.1562 7.31445C 57.2988 7.31445 58.2012 7.74512 58.8633 8.60645C 59.5312 9.46777 59.8652 10.666 59.8652 12.2012L 59.8652 12.3506ZM 58.2393 12.166C 58.2393 11.0938 58.0107 10.2471 57.5537 9.62598C 57.0967 9.00488 56.4697 8.69434 55.6729 8.69434C 54.6885 8.69434 53.9502 9.13086 53.458 10.0039L 53.458 14.5479C 53.9443 15.415 54.6885 15.8486 55.6904 15.8486C 56.4697 15.8486 57.0879 15.541 57.5449 14.9258C 58.0078 14.3047 58.2393 13.3848 58.2393 12.166ZM 67.8105 16.0596C 67.1777 16.8037 66.249 17.1758 65.0244 17.1758C 64.0107 17.1758 63.2373 16.8828 62.7041 16.2969C 62.1768 15.7051 61.9102 14.832 61.9043 13.6777L 61.9043 7.49023L 63.5303 7.49023L 63.5303 13.6338C 63.5303 15.0752 64.1162 15.7959 65.2881 15.7959C 66.5303 15.7959 67.3564 15.333 67.7666 14.4072L 67.7666 7.49023L 69.3926 7.49023L 69.3926 17L 67.8457 17L 67.8105 16.0596ZM 74.0771 5.1875L 74.0771 7.49023L 75.8525 7.49023L 75.8525 8.74707L 74.0771 8.74707L 74.0771 14.6445C 74.0771 15.0254 74.1562 15.3125 74.3145 15.5059C 74.4727 15.6934 74.7422 15.7871 75.123 15.7871C 75.3105 15.7871 75.5684 15.752 75.8965 15.6816L 75.8965 17C 75.4687 17.1172 75.0527 17.1758 74.6484 17.1758C 73.9219 17.1758 73.374 16.9561 73.0049 16.5166C 72.6357 16.0771 72.4512 15.4531 72.4512 14.6445L 72.4512 8.74707L 70.7197 8.74707L 70.7197 7.49023L 72.4512 7.49023L 72.4512 5.1875L 74.0771 5.1875ZM 81.7061 17.1758C 80.417 17.1758 79.3682 16.7539 78.5596 15.9102C 77.751 15.0605 77.3467 13.9268 77.3467 12.5088L 77.3467 12.21C 77.3467 11.2666 77.5254 10.4258 77.8828 9.6875C 78.2461 8.94336 78.75 8.36328 79.3945 7.94727C 80.0449 7.52539 80.748 7.31445 81.5039 7.31445C 82.7402 7.31445 83.7012 7.72168 84.3867 8.53613C 85.0723 9.35059 85.415 10.5166 85.415 12.0342L 85.415 12.7109L 78.9727 12.7109C 78.9961 13.6484 79.2686 14.4072 79.79 14.9873C 80.3174 15.5615 80.9854 15.8486 81.7939 15.8486C 82.3682 15.8486 82.8545 15.7314 83.2529 15.4971C 83.6514 15.2627 84 14.9521 84.2988 14.5654L 85.292 15.3389C 84.4951 16.5635 83.2998 17.1758 81.7061 17.1758ZM 81.5039 8.65039C 80.8477 8.65039 80.2969 8.89062 79.8516 9.37109C 79.4063 9.8457 79.1309 10.5137 79.0254 11.375L 83.7891 11.375L 83.7891 11.252C 83.7422 10.4258 83.5195 9.78711 83.1211 9.33594C 82.7227 8.87891 82.1836 8.65039 81.5039 8.65039ZM 91.9014 8.94922C 91.6553 8.9082 91.3887 8.8877 91.1016 8.8877C 90.0352 8.8877 89.3115 9.3418 88.9307 10.25L 88.9307 17L 87.3047 17L 87.3047 7.49023L 88.8867 7.49023L 88.9131 8.58887C 89.4463 7.73926 90.2021 7.31445 91.1807 7.31445C 91.4971 7.31445 91.7373 7.35547 91.9014 7.4375L 91.9014 8.94922ZM 14.9531 32.9902L 14.9531 38L 13.2656 38L 13.2656 25.2031L 17.9854 25.2031C 19.3857 25.2031 20.4814 25.5605 21.2725 26.2754C 22.0693 26.9902 22.4678 27.9365 22.4678 29.1143C 22.4678 30.3564 22.0781 31.3145 21.2988 31.9883C 20.5254 32.6562 19.415 32.9902 17.9678 32.9902L 14.9531 32.9902ZM 14.9531 31.6104L 17.9854 31.6104C 18.8877 31.6104 19.5791 31.3994 20.0596 30.9775C 20.54 30.5498 20.7803 29.9346 20.7803 29.1318C 20.7803 28.3701 20.54 27.7607 20.0596 27.3037C 19.5791 26.8467 18.9199 26.6094 18.082 26.5918L 14.9531 26.5918L 14.9531 31.6104ZM 28.9629 29.9492C 28.7168 29.9082 28.4502 29.8877 28.1631 29.8877C 27.0967 29.8877 26.373 30.3418 25.9922 31.25L 25.9922 38L 24.3662 38L 24.3662 28.4902L 25.9482 28.4902L 25.9746 29.5889C 26.5078 28.7393 27.2637 28.3145 28.2422 28.3145C 28.5586 28.3145 28.7988 28.3555 28.9629 28.4375L 28.9629 29.9492ZM 29.8594 33.1572C 29.8594 32.2256 30.041 31.3877 30.4043 30.6436C 30.7734 29.8994 31.2832 29.3252 31.9336 28.9209C 32.5898 28.5166 33.3369 28.3145 34.1748 28.3145C 35.4697 28.3145 36.5156 28.7627 37.3125 29.6592C 38.1152 30.5557 38.5166 31.748 38.5166 33.2363L 38.5166 33.3506C 38.5166 34.2764 38.3379 35.1084 37.9805 35.8467C 37.6289 36.5791 37.1221 37.1504 36.46 37.5605C 35.8037 37.9707 35.0479 38.1758 34.1924 38.1758C 32.9033 38.1758 31.8574 37.7275 31.0547 36.8311C 30.2578 35.9346 29.8594 34.748 29.8594 33.2715L 29.8594 33.1572ZM 31.4941 33.3506C 31.4941 34.4053 31.7373 35.252 32.2236 35.8906C 32.7158 36.5293 33.3721 36.8486 34.1924 36.8486C 35.0186 36.8486 35.6748 36.5264 36.1611 35.8818C 36.6475 35.2314 36.8906 34.3232 36.8906 33.1572C 36.8906 32.1143 36.6416 31.2705 36.1436 30.626C 35.6514 29.9756 34.9951 29.6504 34.1748 29.6504C 33.3721 29.6504 32.7246 29.9697 32.2324 30.6084C 31.7402 31.2471 31.4941 32.1611 31.4941 33.3506ZM 44.3701 36.8486C 44.9502 36.8486 45.457 36.6729 45.8906 36.3213C 46.3242 35.9697 46.5645 35.5303 46.6113 35.0029L 48.1494 35.0029C 48.1201 35.5479 47.9326 36.0664 47.5869 36.5586C 47.2412 37.0508 46.7783 37.4434 46.1982 37.7363C 45.624 38.0293 45.0146 38.1758 44.3701 38.1758C 43.0752 38.1758 42.0439 37.7451 41.2764 36.8838C 40.5146 36.0166 40.1338 34.833 40.1338 33.333L 40.1338 33.0605C 40.1338 32.1348 40.3037 31.3115 40.6436 30.5908C 40.9834 29.8701 41.4697 29.3105 42.1025 28.9121C 42.7412 28.5137 43.4941 28.3145 44.3613 28.3145C 45.4277 28.3145 46.3125 28.6338 47.0156 29.2725C 47.7246 29.9111 48.1025 30.7402 48.1494 31.7598L 46.6113 31.7598C 46.5645 31.1445 46.3301 30.6406 45.9082 30.248C 45.4922 29.8496 44.9766 29.6504 44.3613 29.6504C 43.5352 29.6504 42.8936 29.9492 42.4365 30.5469C 41.9854 31.1387 41.7598 31.9971 41.7598 33.1221L 41.7598 33.4297C 41.7598 34.5254 41.9854 35.3691 42.4365 35.9609C 42.8877 36.5527 43.5322 36.8486 44.3701 36.8486ZM 53.9238 38.1758C 52.6348 38.1758 51.5859 37.7539 50.7773 36.9102C 49.9688 36.0605 49.5645 34.9268 49.5645 33.5088L 49.5645 33.21C 49.5645 32.2666 49.7432 31.4258 50.1006 30.6875C 50.4639 29.9434 50.9678 29.3633 51.6123 28.9473C 52.2627 28.5254 52.9658 28.3145 53.7217 28.3145C 54.958 28.3145 55.9189 28.7217 56.6045 29.5361C 57.29 30.3506 57.6328 31.5166 57.6328 33.0342L 57.6328 33.7109L 51.1904 33.7109C 51.2139 34.6484 51.4863 35.4072 52.0078 35.9873C 52.5352 36.5615 53.2031 36.8486 54.0117 36.8486C 54.5859 36.8486 55.0723 36.7314 55.4707 36.4971C 55.8691 36.2627 56.2178 35.9521 56.5166 35.5654L 57.5098 36.3389C 56.7129 37.5635 55.5176 38.1758 53.9238 38.1758ZM 53.7217 29.6504C 53.0654 29.6504 52.5146 29.8906 52.0693 30.3711C 51.624 30.8457 51.3486 31.5137 51.2432 32.375L 56.0068 32.375L 56.0068 32.252C 55.96 31.4258 55.7373 30.7871 55.3389 30.3359C 54.9404 29.8789 54.4014 29.6504 53.7217 29.6504ZM 65.0596 35.4775C 65.0596 35.0381 64.8926 34.6982 64.5586 34.458C 64.2305 34.2119 63.6533 34.001 62.8271 33.8252C 62.0068 33.6494 61.3535 33.4385 60.8672 33.1924C 60.3867 32.9463 60.0293 32.6533 59.7949 32.3135C 59.5664 31.9736 59.4521 31.5693 59.4521 31.1006C 59.4521 30.3213 59.7803 29.6621 60.4365 29.123C 61.0986 28.584 61.9424 28.3145 62.9678 28.3145C 64.0459 28.3145 64.9189 28.5928 65.5869 29.1494C 66.2607 29.7061 66.5977 30.418 66.5977 31.2852L 64.9629 31.2852C 64.9629 30.8398 64.7725 30.4561 64.3916 30.1338C 64.0166 29.8115 63.542 29.6504 62.9678 29.6504C 62.376 29.6504 61.9131 29.7793 61.5791 30.0371C 61.2451 30.2949 61.0781 30.6318 61.0781 31.0479C 61.0781 31.4404 61.2334 31.7363 61.5439 31.9355C 61.8545 32.1348 62.4141 32.3252 63.2227 32.5068C 64.0371 32.6885 64.6963 32.9053 65.2002 33.1572C 65.7041 33.4092 66.0762 33.7139 66.3164 34.0713C 66.5625 34.4229 66.6855 34.8535 66.6855 35.3633C 66.6855 36.2129 66.3457 36.8955 65.666 37.4111C 64.9863 37.9209 64.1045 38.1758 63.0205 38.1758C 62.2588 38.1758 61.585 38.041 60.999 37.7715C 60.4131 37.502 59.9531 37.127 59.6191 36.6465C 59.291 36.1602 59.127 35.6357 59.127 35.0732L 60.7529 35.0732C 60.7822 35.6182 60.999 36.0518 61.4033 36.374C 61.8135 36.6904 62.3525 36.8486 63.0205 36.8486C 63.6357 36.8486 64.1279 36.7256 64.4971 36.4795C 64.8721 36.2275 65.0596 35.8936 65.0596 35.4775ZM 74.3408 35.4775C 74.3408 35.0381 74.1738 34.6982 73.8398 34.458C 73.5117 34.2119 72.9346 34.001 72.1084 33.8252C 71.2881 33.6494 70.6348 33.4385 70.1484 33.1924C 69.668 32.9463 69.3105 32.6533 69.0762 32.3135C 68.8477 31.9736 68.7334 31.5693 68.7334 31.1006C 68.7334 30.3213 69.0615 29.6621 69.7178 29.123C 70.3799 28.584 71.2236 28.3145 72.249 28.3145C 73.3271 28.3145 74.2002 28.5928 74.8682 29.1494C 75.542 29.7061 75.8789 30.418 75.8789 31.2852L 74.2441 31.2852C 74.2441 30.8398 74.0537 30.4561 73.6729 30.1338C 73.2979 29.8115 72.8232 29.6504 72.249 29.6504C 71.6572 29.6504 71.1943 29.7793 70.8604 30.0371C 70.5264 30.2949 70.3594 30.6318 70.3594 31.0479C 70.3594 31.4404 70.5146 31.7363 70.8252 31.9355C 71.1357 32.1348 71.6953 32.3252 72.5039 32.5068C 73.3184 32.6885 73.9775 32.9053 74.4814 33.1572C 74.9854 33.4092 75.3574 33.7139 75.5977 34.0713C 75.8438 34.4229 75.9668 34.8535 75.9668 35.3633C 75.9668 36.2129 75.627 36.8955 74.9473 37.4111C 74.2676 37.9209 73.3857 38.1758 72.3018 38.1758C 71.54 38.1758 70.8662 38.041 70.2803 37.7715C 69.6943 37.502 69.2344 37.127 68.9004 36.6465C 68.5723 36.1602 68.4082 35.6357 68.4082 35.0732L 70.0342 35.0732C 70.0635 35.6182 70.2803 36.0518 70.6846 36.374C 71.0947 36.6904 71.6338 36.8486 72.3018 36.8486C 72.917 36.8486 73.4092 36.7256 73.7783 36.4795C 74.1533 36.2275 74.3408 35.8936 74.3408 35.4775ZM 77.6543 33.1572C 77.6543 32.2256 77.8359 31.3877 78.1992 30.6436C 78.5684 29.8994 79.0781 29.3252 79.7285 28.9209C 80.3848 28.5166 81.1318 28.3145 81.9697 28.3145C 83.2646 28.3145 84.3105 28.7627 85.1074 29.6592C 85.9102 30.5557 86.3115 31.748 86.3115 33.2363L 86.3115 33.3506C 86.3115 34.2764 86.1328 35.1084 85.7754 35.8467C 85.4238 36.5791 84.917 37.1504 84.2549 37.5605C 83.5986 37.9707 82.8428 38.1758 81.9873 38.1758C 80.6982 38.1758 79.6523 37.7275 78.8496 36.8311C 78.0527 35.9346 77.6543 34.748 77.6543 33.2715L 77.6543 33.1572ZM 79.2891 33.3506C 79.2891 34.4053 79.5322 35.252 80.0186 35.8906C 80.5107 36.5293 81.167 36.8486 81.9873 36.8486C 82.8135 36.8486 83.4697 36.5264 83.9561 35.8818C 84.4424 35.2314 84.6855 34.3232 84.6855 33.1572C 84.6855 32.1143 84.4365 31.2705 83.9385 30.626C 83.4463 29.9756 82.79 29.6504 81.9697 29.6504C 81.167 29.6504 80.5195 29.9697 80.0273 30.6084C 79.5352 31.2471 79.2891 32.1611 79.2891 33.3506ZM 92.9473 29.9492C 92.7012 29.9082 92.4346 29.8877 92.1475 29.8877C 91.0811 29.8877 90.3574 30.3418 89.9766 31.25L 89.9766 38L 88.3506 38L 88.3506 28.4902L 89.9326 28.4902L 89.959 29.5889C 90.4922 28.7393 91.248 28.3145 92.2266 28.3145C 92.543 28.3145 92.7832 28.3555 92.9473 28.4375L 92.9473 29.9492Z"/>
<path id="path3_stroke" d="M 132.061 1.06066C 132.646 0.474874 132.646 -0.474874 132.061 -1.06066L 122.515 -10.6066C 121.929 -11.1924 120.979 -11.1924 120.393 -10.6066C 119.808 -10.0208 119.808 -9.07107 120.393 -8.48528L 128.879 0L 120.393 8.48528C 119.808 9.07107 119.808 10.0208 120.393 10.6066C 120.979 11.1924 121.929 11.1924 122.515 10.6066L 132.061 1.06066ZM 0 1.5L 131 1.5L 131 -1.5L 0 -1.5L 0 1.5Z"/>
<path id="path4_fill" d="M 12.7334 11.9902L 12.7334 17L 11.0459 17L 11.0459 4.20312L 15.7656 4.20312C 17.166 4.20312 18.2617 4.56055 19.0527 5.27539C 19.8496 5.99023 20.248 6.93652 20.248 8.11426C 20.248 9.35645 19.8584 10.3145 19.0791 10.9883C 18.3057 11.6562 17.1953 11.9902 15.748 11.9902L 12.7334 11.9902ZM 12.7334 10.6104L 15.7656 10.6104C 16.668 10.6104 17.3594 10.3994 17.8398 9.97754C 18.3203 9.5498 18.5605 8.93457 18.5605 8.13184C 18.5605 7.37012 18.3203 6.76074 17.8398 6.30371C 17.3594 5.84668 16.7002 5.60938 15.8623 5.5918L 12.7334 5.5918L 12.7334 10.6104ZM 25.3984 14.6182L 27.6133 7.49023L 29.3535 7.49023L 25.5303 18.4678C 24.9385 20.0498 23.998 20.8408 22.709 20.8408L 22.4014 20.8145L 21.7949 20.7002L 21.7949 19.3818L 22.2344 19.417C 22.7852 19.417 23.2129 19.3057 23.5176 19.083C 23.8281 18.8604 24.083 18.4531 24.2822 17.8613L 24.6426 16.8945L 21.25 7.49023L 23.0254 7.49023L 25.3984 14.6182ZM 33.0186 5.1875L 33.0186 7.49023L 34.7939 7.49023L 34.7939 8.74707L 33.0186 8.74707L 33.0186 14.6445C 33.0186 15.0254 33.0977 15.3125 33.2559 15.5059C 33.4141 15.6934 33.6836 15.7871 34.0645 15.7871C 34.252 15.7871 34.5098 15.752 34.8379 15.6816L 34.8379 17C 34.4102 17.1172 33.9941 17.1758 33.5898 17.1758C 32.8633 17.1758 32.3154 16.9561 31.9463 16.5166C 31.5771 16.0771 31.3926 15.4531 31.3926 14.6445L 31.3926 8.74707L 29.6611 8.74707L 29.6611 7.49023L 31.3926 7.49023L 31.3926 5.1875L 33.0186 5.1875ZM 38.3271 8.6416C 39.0479 7.75684 39.9854 7.31445 41.1396 7.31445C 43.1494 7.31445 44.1631 8.44824 44.1807 10.7158L 44.1807 17L 42.5547 17L 42.5547 10.707C 42.5488 10.0215 42.3906 9.51465 42.0801 9.18652C 41.7754 8.8584 41.2979 8.69434 40.6475 8.69434C 40.1201 8.69434 39.6572 8.83496 39.2588 9.11621C 38.8604 9.39746 38.5498 9.7666 38.3271 10.2236L 38.3271 17L 36.7012 17L 36.7012 3.5L 38.3271 3.5L 38.3271 8.6416ZM 46.1846 12.1572C 46.1846 11.2256 46.3662 10.3877 46.7295 9.64355C 47.0986 8.89941 47.6084 8.3252 48.2588 7.9209C 48.915 7.5166 49.6621 7.31445 50.5 7.31445C 51.7949 7.31445 52.8408 7.7627 53.6377 8.65918C 54.4404 9.55566 54.8418 10.748 54.8418 12.2363L 54.8418 12.3506C 54.8418 13.2764 54.6631 14.1084 54.3057 14.8467C 53.9541 15.5791 53.4473 16.1504 52.7852 16.5605C 52.1289 16.9707 51.373 17.1758 50.5176 17.1758C 49.2285 17.1758 48.1826 16.7275 47.3799 15.8311C 46.583 14.9346 46.1846 13.748 46.1846 12.2715L 46.1846 12.1572ZM 47.8193 12.3506C 47.8193 13.4053 48.0625 14.252 48.5488 14.8906C 49.041 15.5293 49.6973 15.8486 50.5176 15.8486C 51.3438 15.8486 52 15.5264 52.4863 14.8818C 52.9727 14.2314 53.2158 13.3232 53.2158 12.1572C 53.2158 11.1143 52.9668 10.2705 52.4688 9.62598C 51.9766 8.97559 51.3203 8.65039 50.5 8.65039C 49.6973 8.65039 49.0498 8.96973 48.5576 9.6084C 48.0654 10.2471 47.8193 11.1611 47.8193 12.3506ZM 58.4189 7.49023L 58.4717 8.68555C 59.1982 7.77148 60.1475 7.31445 61.3193 7.31445C 63.3291 7.31445 64.3428 8.44824 64.3604 10.7158L 64.3604 17L 62.7344 17L 62.7344 10.707C 62.7285 10.0215 62.5703 9.51465 62.2598 9.18652C 61.9551 8.8584 61.4775 8.69434 60.8271 8.69434C 60.2998 8.69434 59.8369 8.83496 59.4385 9.11621C 59.04 9.39746 58.7295 9.7666 58.5068 10.2236L 58.5068 17L 56.8809 17L 56.8809 7.49023L 58.4189 7.49023ZM 75.0918 15.8486C 75.6719 15.8486 76.1787 15.6729 76.6123 15.3213C 77.0459 14.9697 77.2861 14.5303 77.333 14.0029L 78.8711 14.0029C 78.8418 14.5479 78.6543 15.0664 78.3086 15.5586C 77.9629 16.0508 77.5 16.4434 76.9199 16.7363C 76.3457 17.0293 75.7363 17.1758 75.0918 17.1758C 73.7969 17.1758 72.7656 16.7451 71.998 15.8838C 71.2363 15.0166 70.8555 13.833 70.8555 12.333L 70.8555 12.0605C 70.8555 11.1348 71.0254 10.3115 71.3652 9.59082C 71.7051 8.87012 72.1914 8.31055 72.8242 7.91211C 73.4629 7.51367 74.2158 7.31445 75.083 7.31445C 76.1494 7.31445 77.0342 7.63379 77.7373 8.27246C 78.4463 8.91113 78.8242 9.74023 78.8711 10.7598L 77.333 10.7598C 77.2861 10.1445 77.0518 9.64063 76.6299 9.24805C 76.2139 8.84961 75.6982 8.65039 75.083 8.65039C 74.2568 8.65039 73.6152 8.94922 73.1582 9.54688C 72.707 10.1387 72.4814 10.9971 72.4814 12.1221L 72.4814 12.4297C 72.4814 13.5254 72.707 14.3691 73.1582 14.9609C 73.6094 15.5527 74.2539 15.8486 75.0918 15.8486ZM 80.2686 12.1572C 80.2686 11.2256 80.4502 10.3877 80.8135 9.64355C 81.1826 8.89941 81.6924 8.3252 82.3428 7.9209C 82.999 7.5166 83.7461 7.31445 84.584 7.31445C 85.8789 7.31445 86.9248 7.7627 87.7217 8.65918C 88.5244 9.55566 88.9258 10.748 88.9258 12.2363L 88.9258 12.3506C 88.9258 13.2764 88.7471 14.1084 88.3896 14.8467C 88.0381 15.5791 87.5312 16.1504 86.8691 16.5605C 86.2129 16.9707 85.457 17.1758 84.6016 17.1758C 83.3125 17.1758 82.2666 16.7275 81.4639 15.8311C 80.667 14.9346 80.2686 13.748 80.2686 12.2715L 80.2686 12.1572ZM 81.9033 12.3506C 81.9033 13.4053 82.1465 14.252 82.6328 14.8906C 83.125 15.5293 83.7812 15.8486 84.6016 15.8486C 85.4277 15.8486 86.084 15.5264 86.5703 14.8818C 87.0566 14.2314 87.2998 13.3232 87.2998 12.1572C 87.2998 11.1143 87.0508 10.2705 86.5527 9.62598C 86.0605 8.97559 85.4043 8.65039 84.584 8.65039C 83.7812 8.65039 83.1338 8.96973 82.6416 9.6084C 82.1494 10.2471 81.9033 11.1611 81.9033 12.3506ZM 90.5693 12.166C 90.5693 10.707 90.915 9.53516 91.6064 8.65039C 92.2979 7.75977 93.2031 7.31445 94.3223 7.31445C 95.4355 7.31445 96.3174 7.69531 96.9678 8.45703L 96.9678 3.5L 98.5938 3.5L 98.5938 17L 97.0996 17L 97.0205 15.9805C 96.3701 16.7773 95.4648 17.1758 94.3047 17.1758C 93.2031 17.1758 92.3037 16.7246 91.6064 15.8223C 90.915 14.9199 90.5693 13.7422 90.5693 12.2891L 90.5693 12.166ZM 92.1953 12.3506C 92.1953 13.4287 92.418 14.2725 92.8633 14.8818C 93.3086 15.4912 93.9238 15.7959 94.709 15.7959C 95.7402 15.7959 96.4932 15.333 96.9678 14.4072L 96.9678 10.0391C 96.4814 9.14258 95.7344 8.69434 94.7266 8.69434C 93.9297 8.69434 93.3086 9.00195 92.8633 9.61719C 92.418 10.2324 92.1953 11.1436 92.1953 12.3506ZM 105.071 17.1758C 103.782 17.1758 102.733 16.7539 101.925 15.9102C 101.116 15.0605 100.712 13.9268 100.712 12.5088L 100.712 12.21C 100.712 11.2666 100.891 10.4258 101.248 9.6875C 101.611 8.94336 102.115 8.36328 102.76 7.94727C 103.41 7.52539 104.113 7.31445 104.869 7.31445C 106.105 7.31445 107.066 7.72168 107.752 8.53613C 108.438 9.35059 108.78 10.5166 108.78 12.0342L 108.78 12.7109L 102.338 12.7109C 102.361 13.6484 102.634 14.4072 103.155 14.9873C 103.683 15.5615 104.351 15.8486 105.159 15.8486C 105.733 15.8486 106.22 15.7314 106.618 15.4971C 107.017 15.2627 107.365 14.9521 107.664 14.5654L 108.657 15.3389C 107.86 16.5635 106.665 17.1758 105.071 17.1758ZM 104.869 8.65039C 104.213 8.65039 103.662 8.89062 103.217 9.37109C 102.771 9.8457 102.496 10.5137 102.391 11.375L 107.154 11.375L 107.154 11.252C 107.107 10.4258 106.885 9.78711 106.486 9.33594C 106.088 8.87891 105.549 8.65039 104.869 8.65039Z"/>
<path id="path5_fill" d="M 1.70215 17L 1.70215 4.20312L 5.88574 4.20312C 7.27441 4.20312 8.31738 4.49023 9.01465 5.06445C 9.71777 5.63867 10.0693 6.48828 10.0693 7.61328C 10.0693 8.21094 9.89941 8.74121 9.55957 9.2041C 9.21973 9.66113 8.75684 10.0156 8.1709 10.2676C 8.8623 10.4609 9.40723 10.8301 9.80566 11.375C 10.21 11.9141 10.4121 12.5586 10.4121 13.3086C 10.4121 14.457 10.04 15.3594 9.2959 16.0156C 8.55176 16.6719 7.5 17 6.14062 17L 1.70215 17ZM 3.38965 11.0146L 3.38965 15.6201L 6.17578 15.6201C 6.96094 15.6201 7.5791 15.418 8.03027 15.0137C 8.4873 14.6035 8.71582 14.041 8.71582 13.3262C 8.71582 11.7852 7.87793 11.0146 6.20215 11.0146L 3.38965 11.0146ZM 3.38965 9.66113L 5.93848 9.66113C 6.67676 9.66113 7.26562 9.47656 7.70508 9.10742C 8.15039 8.73828 8.37305 8.2373 8.37305 7.60449C 8.37305 6.90137 8.16797 6.3916 7.75781 6.0752C 7.34766 5.75293 6.72363 5.5918 5.88574 5.5918L 3.38965 5.5918L 3.38965 9.66113ZM 15.7734 14.6182L 17.9883 7.49023L 19.7285 7.49023L 15.9053 18.4678C 15.3135 20.0498 14.373 20.8408 13.084 20.8408L 12.7764 20.8145L 12.1699 20.7002L 12.1699 19.3818L 12.6094 19.417C 13.1602 19.417 13.5879 19.3057 13.8926 19.083C 14.2031 18.8604 14.458 18.4531 14.6572 17.8613L 15.0176 16.8945L 11.625 7.49023L 13.4004 7.49023L 15.7734 14.6182ZM 23.3936 5.1875L 23.3936 7.49023L 25.1689 7.49023L 25.1689 8.74707L 23.3936 8.74707L 23.3936 14.6445C 23.3936 15.0254 23.4727 15.3125 23.6309 15.5059C 23.7891 15.6934 24.0586 15.7871 24.4395 15.7871C 24.627 15.7871 24.8848 15.752 25.2129 15.6816L 25.2129 17C 24.7852 17.1172 24.3691 17.1758 23.9648 17.1758C 23.2383 17.1758 22.6904 16.9561 22.3213 16.5166C 21.9521 16.0771 21.7676 15.4531 21.7676 14.6445L 21.7676 8.74707L 20.0361 8.74707L 20.0361 7.49023L 21.7676 7.49023L 21.7676 5.1875L 23.3936 5.1875ZM 31.0225 17.1758C 29.7334 17.1758 28.6846 16.7539 27.876 15.9102C 27.0674 15.0605 26.6631 13.9268 26.6631 12.5088L 26.6631 12.21C 26.6631 11.2666 26.8418 10.4258 27.1992 9.6875C 27.5625 8.94336 28.0664 8.36328 28.7109 7.94727C 29.3613 7.52539 30.0645 7.31445 30.8203 7.31445C 32.0566 7.31445 33.0176 7.72168 33.7031 8.53613C 34.3887 9.35059 34.7314 10.5166 34.7314 12.0342L 34.7314 12.7109L 28.2891 12.7109C 28.3125 13.6484 28.585 14.4072 29.1064 14.9873C 29.6338 15.5615 30.3018 15.8486 31.1104 15.8486C 31.6846 15.8486 32.1709 15.7314 32.5693 15.4971C 32.9678 15.2627 33.3164 14.9521 33.6152 14.5654L 34.6084 15.3389C 33.8115 16.5635 32.6162 17.1758 31.0225 17.1758ZM 30.8203 8.65039C 30.1641 8.65039 29.6133 8.89062 29.168 9.37109C 28.7227 9.8457 28.4473 10.5137 28.3418 11.375L 33.1055 11.375L 33.1055 11.252C 33.0586 10.4258 32.8359 9.78711 32.4375 9.33594C 32.0391 8.87891 31.5 8.65039 30.8203 8.65039ZM 40.4355 15.8486C 41.0156 15.8486 41.5225 15.6729 41.9561 15.3213C 42.3896 14.9697 42.6299 14.5303 42.6768 14.0029L 44.2148 14.0029C 44.1855 14.5479 43.998 15.0664 43.6523 15.5586C 43.3066 16.0508 42.8438 16.4434 42.2637 16.7363C 41.6895 17.0293 41.0801 17.1758 40.4355 17.1758C 39.1406 17.1758 38.1094 16.7451 37.3418 15.8838C 36.5801 15.0166 36.1992 13.833 36.1992 12.333L 36.1992 12.0605C 36.1992 11.1348 36.3691 10.3115 36.709 9.59082C 37.0488 8.87012 37.5352 8.31055 38.168 7.91211C 38.8066 7.51367 39.5596 7.31445 40.4268 7.31445C 41.4932 7.31445 42.3779 7.63379 43.0811 8.27246C 43.79 8.91113 44.168 9.74023 44.2148 10.7598L 42.6768 10.7598C 42.6299 10.1445 42.3955 9.64063 41.9736 9.24805C 41.5576 8.84961 41.042 8.65039 40.4268 8.65039C 39.6006 8.65039 38.959 8.94922 38.502 9.54688C 38.0508 10.1387 37.8252 10.9971 37.8252 12.1221L 37.8252 12.4297C 37.8252 13.5254 38.0508 14.3691 38.502 14.9609C 38.9531 15.5527 39.5977 15.8486 40.4355 15.8486ZM 45.6123 12.1572C 45.6123 11.2256 45.7939 10.3877 46.1572 9.64355C 46.5264 8.89941 47.0361 8.3252 47.6865 7.9209C 48.3428 7.5166 49.0898 7.31445 49.9277 7.31445C 51.2227 7.31445 52.2686 7.7627 53.0654 8.65918C 53.8682 9.55566 54.2695 10.748 54.2695 12.2363L 54.2695 12.3506C 54.2695 13.2764 54.0908 14.1084 53.7334 14.8467C 53.3818 15.5791 52.875 16.1504 52.2129 16.5605C 51.5566 16.9707 50.8008 17.1758 49.9453 17.1758C 48.6563 17.1758 47.6104 16.7275 46.8076 15.8311C 46.0107 14.9346 45.6123 13.748 45.6123 12.2715L 45.6123 12.1572ZM 47.2471 12.3506C 47.2471 13.4053 47.4902 14.252 47.9766 14.8906C 48.4688 15.5293 49.125 15.8486 49.9453 15.8486C 50.7715 15.8486 51.4277 15.5264 51.9141 14.8818C 52.4004 14.2314 52.6436 13.3232 52.6436 12.1572C 52.6436 11.1143 52.3945 10.2705 51.8965 9.62598C 51.4043 8.97559 50.748 8.65039 49.9277 8.65039C 49.125 8.65039 48.4775 8.96973 47.9854 9.6084C 47.4932 10.2471 47.2471 11.1611 47.2471 12.3506ZM 55.9131 12.166C 55.9131 10.707 56.2588 9.53516 56.9502 8.65039C 57.6416 7.75977 58.5469 7.31445 59.666 7.31445C 60.7793 7.31445 61.6611 7.69531 62.3115 8.45703L 62.3115 3.5L 63.9375 3.5L 63.9375 17L 62.4434 17L 62.3643 15.9805C 61.7139 16.7773 60.8086 17.1758 59.6484 17.1758C 58.5469 17.1758 57.6475 16.7246 56.9502 15.8223C 56.2588 14.9199 55.9131 13.7422 55.9131 12.2891L 55.9131 12.166ZM 57.5391 12.3506C 57.5391 13.4287 57.7617 14.2725 58.207 14.8818C 58.6523 15.4912 59.2676 15.7959 60.0527 15.7959C 61.084 15.7959 61.8369 15.333 62.3115 14.4072L 62.3115 10.0391C 61.8252 9.14258 61.0781 8.69434 60.0703 8.69434C 59.2734 8.69434 58.6523 9.00195 58.207 9.61719C 57.7617 10.2324 57.5391 11.1436 57.5391 12.3506ZM 70.415 17.1758C 69.126 17.1758 68.0771 16.7539 67.2686 15.9102C 66.46 15.0605 66.0557 13.9268 66.0557 12.5088L 66.0557 12.21C 66.0557 11.2666 66.2344 10.4258 66.5918 9.6875C 66.9551 8.94336 67.459 8.36328 68.1035 7.94727C 68.7539 7.52539 69.457 7.31445 70.2129 7.31445C 71.4492 7.31445 72.4102 7.72168 73.0957 8.53613C 73.7812 9.35059 74.124 10.5166 74.124 12.0342L 74.124 12.7109L 67.6816 12.7109C 67.7051 13.6484 67.9775 14.4072 68.499 14.9873C 69.0264 15.5615 69.6943 15.8486 70.5029 15.8486C 71.0771 15.8486 71.5635 15.7314 71.9619 15.4971C 72.3604 15.2627 72.709 14.9521 73.0078 14.5654L 74.001 15.3389C 73.2041 16.5635 72.0088 17.1758 70.415 17.1758ZM 70.2129 8.65039C 69.5566 8.65039 69.0059 8.89062 68.5605 9.37109C 68.1152 9.8457 67.8398 10.5137 67.7344 11.375L 72.498 11.375L 72.498 11.252C 72.4512 10.4258 72.2285 9.78711 71.8301 9.33594C 71.4316 8.87891 70.8926 8.65039 70.2129 8.65039Z"/>
<path id="path6_fill" d="M 19.127 11.8232L 16.1211 11.8232L 16.1211 17L 14.4248 17L 14.4248 4.20312L 18.6611 4.20312C 20.1025 4.20312 21.21 4.53125 21.9834 5.1875C 22.7627 5.84375 23.1523 6.79883 23.1523 8.05273C 23.1523 8.84961 22.9355 9.54395 22.502 10.1357C 22.0742 10.7275 21.4766 11.1699 20.709 11.4629L 23.7148 16.8945L 23.7148 17L 21.9043 17L 19.127 11.8232ZM 16.1211 10.4434L 18.7139 10.4434C 19.5518 10.4434 20.2168 10.2266 20.709 9.79297C 21.207 9.35938 21.4561 8.7793 21.4561 8.05273C 21.4561 7.26172 21.2188 6.65527 20.7441 6.2334C 20.2754 5.81152 19.5957 5.59766 18.7051 5.5918L 16.1211 5.5918L 16.1211 10.4434ZM 29.2168 17.1758C 27.9277 17.1758 26.8789 16.7539 26.0703 15.9102C 25.2617 15.0605 24.8574 13.9268 24.8574 12.5088L 24.8574 12.21C 24.8574 11.2666 25.0361 10.4258 25.3936 9.6875C 25.7568 8.94336 26.2607 8.36328 26.9053 7.94727C 27.5557 7.52539 28.2588 7.31445 29.0146 7.31445C 30.251 7.31445 31.2119 7.72168 31.8975 8.53613C 32.583 9.35059 32.9258 10.5166 32.9258 12.0342L 32.9258 12.7109L 26.4834 12.7109C 26.5068 13.6484 26.7793 14.4072 27.3008 14.9873C 27.8281 15.5615 28.4961 15.8486 29.3047 15.8486C 29.8789 15.8486 30.3652 15.7314 30.7637 15.4971C 31.1621 15.2627 31.5107 14.9521 31.8096 14.5654L 32.8027 15.3389C 32.0059 16.5635 30.8105 17.1758 29.2168 17.1758ZM 29.0146 8.65039C 28.3584 8.65039 27.8076 8.89062 27.3623 9.37109C 26.917 9.8457 26.6416 10.5137 26.5361 11.375L 31.2998 11.375L 31.2998 11.252C 31.2529 10.4258 31.0303 9.78711 30.6318 9.33594C 30.2334 8.87891 29.6943 8.65039 29.0146 8.65039ZM 40.3525 14.4775C 40.3525 14.0381 40.1855 13.6982 39.8516 13.458C 39.5234 13.2119 38.9463 13.001 38.1201 12.8252C 37.2998 12.6494 36.6465 12.4385 36.1602 12.1924C 35.6797 11.9463 35.3223 11.6533 35.0879 11.3135C 34.8594 10.9736 34.7451 10.5693 34.7451 10.1006C 34.7451 9.32129 35.0732 8.66211 35.7295 8.12305C 36.3916 7.58398 37.2354 7.31445 38.2607 7.31445C 39.3389 7.31445 40.2119 7.59277 40.8799 8.14941C 41.5537 8.70605 41.8906 9.41797 41.8906 10.2852L 40.2559 10.2852C 40.2559 9.83984 40.0654 9.45605 39.6846 9.13379C 39.3096 8.81152 38.835 8.65039 38.2607 8.65039C 37.6689 8.65039 37.2061 8.7793 36.8721 9.03711C 36.5381 9.29492 36.3711 9.63184 36.3711 10.0479C 36.3711 10.4404 36.5264 10.7363 36.8369 10.9355C 37.1475 11.1348 37.707 11.3252 38.5156 11.5068C 39.3301 11.6885 39.9893 11.9053 40.4932 12.1572C 40.9971 12.4092 41.3691 12.7139 41.6094 13.0713C 41.8555 13.4229 41.9785 13.8535 41.9785 14.3633C 41.9785 15.2129 41.6387 15.8955 40.959 16.4111C 40.2793 16.9209 39.3975 17.1758 38.3135 17.1758C 37.5518 17.1758 36.8779 17.041 36.292 16.7715C 35.7061 16.502 35.2461 16.127 34.9121 15.6465C 34.584 15.1602 34.4199 14.6357 34.4199 14.0732L 36.0459 14.0732C 36.0752 14.6182 36.292 15.0518 36.6963 15.374C 37.1064 15.6904 37.6455 15.8486 38.3135 15.8486C 38.9287 15.8486 39.4209 15.7256 39.79 15.4795C 40.165 15.2275 40.3525 14.8936 40.3525 14.4775ZM 49.9678 16.0596C 49.335 16.8037 48.4062 17.1758 47.1816 17.1758C 46.168 17.1758 45.3945 16.8828 44.8613 16.2969C 44.334 15.7051 44.0674 14.832 44.0615 13.6777L 44.0615 7.49023L 45.6875 7.49023L 45.6875 13.6338C 45.6875 15.0752 46.2734 15.7959 47.4453 15.7959C 48.6875 15.7959 49.5137 15.333 49.9238 14.4072L 49.9238 7.49023L 51.5498 7.49023L 51.5498 17L 50.0029 17L 49.9678 16.0596ZM 55.7949 17L 54.1689 17L 54.1689 3.5L 55.7949 3.5L 55.7949 17ZM 60.6113 5.1875L 60.6113 7.49023L 62.3867 7.49023L 62.3867 8.74707L 60.6113 8.74707L 60.6113 14.6445C 60.6113 15.0254 60.6904 15.3125 60.8486 15.5059C 61.0068 15.6934 61.2764 15.7871 61.6572 15.7871C 61.8447 15.7871 62.1025 15.752 62.4307 15.6816L 62.4307 17C 62.0029 17.1172 61.5869 17.1758 61.1826 17.1758C 60.4561 17.1758 59.9082 16.9561 59.5391 16.5166C 59.1699 16.0771 58.9854 15.4531 58.9854 14.6445L 58.9854 8.74707L 57.2539 8.74707L 57.2539 7.49023L 58.9854 7.49023L 58.9854 5.1875L 60.6113 5.1875ZM 68.3281 12.1572C 68.3281 11.2256 68.5098 10.3877 68.873 9.64355C 69.2422 8.89941 69.752 8.3252 70.4023 7.9209C 71.0586 7.5166 71.8057 7.31445 72.6436 7.31445C 73.9385 7.31445 74.9844 7.7627 75.7812 8.65918C 76.584 9.55566 76.9854 10.748 76.9854 12.2363L 76.9854 12.3506C 76.9854 13.2764 76.8066 14.1084 76.4492 14.8467C 76.0977 15.5791 75.5908 16.1504 74.9287 16.5605C 74.2725 16.9707 73.5166 17.1758 72.6611 17.1758C 71.3721 17.1758 70.3262 16.7275 69.5234 15.8311C 68.7266 14.9346 68.3281 13.748 68.3281 12.2715L 68.3281 12.1572ZM 69.9629 12.3506C 69.9629 13.4053 70.2061 14.252 70.6924 14.8906C 71.1846 15.5293 71.8408 15.8486 72.6611 15.8486C 73.4873 15.8486 74.1436 15.5264 74.6299 14.8818C 75.1162 14.2314 75.3594 13.3232 75.3594 12.1572C 75.3594 11.1143 75.1104 10.2705 74.6123 9.62598C 74.1201 8.97559 73.4639 8.65039 72.6436 8.65039C 71.8408 8.65039 71.1934 8.96973 70.7012 9.6084C 70.209 10.2471 69.9629 11.1611 69.9629 12.3506ZM 79.8242 17L 79.8242 8.74707L 78.3213 8.74707L 78.3213 7.49023L 79.8242 7.49023L 79.8242 6.51465C 79.8242 5.49512 80.0967 4.70703 80.6416 4.15039C 81.1865 3.59375 81.957 3.31543 82.9531 3.31543C 83.3281 3.31543 83.7002 3.36523 84.0693 3.46484L 83.9814 4.7832C 83.7061 4.73047 83.4131 4.7041 83.1025 4.7041C 82.5752 4.7041 82.168 4.85938 81.8809 5.16992C 81.5938 5.47461 81.4502 5.91406 81.4502 6.48828L 81.4502 7.49023L 83.4805 7.49023L 83.4805 8.74707L 81.4502 8.74707L 81.4502 17L 79.8242 17ZM 20.8145 32.0146C 20.8145 33.2686 20.6035 34.3643 20.1816 35.3018C 19.7598 36.2334 19.1621 36.9453 18.3887 37.4375C 17.6152 37.9297 16.7129 38.1758 15.6816 38.1758C 14.6738 38.1758 13.7803 37.9297 13.001 37.4375C 12.2217 36.9395 11.6152 36.2334 11.1816 35.3193C 10.7539 34.3994 10.5342 33.3359 10.5225 32.1289L 10.5225 31.2061C 10.5225 29.9756 10.7363 28.8887 11.1641 27.9453C 11.5918 27.002 12.1953 26.2812 12.9746 25.7832C 13.7598 25.2793 14.6562 25.0273 15.6641 25.0273C 16.6895 25.0273 17.5918 25.2764 18.3711 25.7744C 19.1562 26.2666 19.7598 26.9844 20.1816 27.9277C 20.6035 28.8652 20.8145 29.958 20.8145 31.2061L 20.8145 32.0146ZM 19.1357 31.1885C 19.1357 29.6709 18.8311 28.5078 18.2217 27.6992C 17.6123 26.8848 16.7598 26.4775 15.6641 26.4775C 14.5977 26.4775 13.7568 26.8848 13.1416 27.6992C 12.5322 28.5078 12.2188 29.6328 12.2012 31.0742L 12.2012 32.0146C 12.2012 33.4854 12.5088 34.6426 13.124 35.4863C 13.7451 36.3242 14.5977 36.7432 15.6816 36.7432C 16.7715 36.7432 17.6152 36.3477 18.2129 35.5566C 18.8105 34.7598 19.1182 33.6201 19.1357 32.1377L 19.1357 31.1885ZM 31.124 33.3506C 31.124 34.7979 30.793 35.9639 30.1309 36.8486C 29.4688 37.7334 28.5723 38.1758 27.4414 38.1758C 26.2871 38.1758 25.3789 37.8096 24.7168 37.0771L 24.7168 41.6562L 23.0908 41.6562L 23.0908 28.4902L 24.5762 28.4902L 24.6553 29.5449C 25.3174 28.7246 26.2373 28.3145 27.415 28.3145C 28.5576 28.3145 29.46 28.7451 30.1221 29.6064C 30.79 30.4678 31.124 31.666 31.124 33.2012L 31.124 33.3506ZM 29.498 33.166C 29.498 32.0938 29.2695 31.2471 28.8125 30.626C 28.3555 30.0049 27.7285 29.6943 26.9316 29.6943C 25.9473 29.6943 25.209 30.1309 24.7168 31.0039L 24.7168 35.5479C 25.2031 36.415 25.9473 36.8486 26.9492 36.8486C 27.7285 36.8486 28.3467 36.541 28.8037 35.9258C 29.2666 35.3047 29.498 34.3848 29.498 33.166ZM 37.1445 38.1758C 35.8555 38.1758 34.8066 37.7539 33.998 36.9102C 33.1895 36.0605 32.7852 34.9268 32.7852 33.5088L 32.7852 33.21C 32.7852 32.2666 32.9639 31.4258 33.3213 30.6875C 33.6846 29.9434 34.1885 29.3633 34.833 28.9473C 35.4834 28.5254 36.1865 28.3145 36.9424 28.3145C 38.1787 28.3145 39.1396 28.7217 39.8252 29.5361C 40.5107 30.3506 40.8535 31.5166 40.8535 33.0342L 40.8535 33.7109L 34.4111 33.7109C 34.4346 34.6484 34.707 35.4072 35.2285 35.9873C 35.7559 36.5615 36.4238 36.8486 37.2324 36.8486C 37.8066 36.8486 38.293 36.7314 38.6914 36.4971C 39.0898 36.2627 39.4385 35.9521 39.7373 35.5654L 40.7305 36.3389C 39.9336 37.5635 38.7383 38.1758 37.1445 38.1758ZM 36.9424 29.6504C 36.2861 29.6504 35.7354 29.8906 35.29 30.3711C 34.8447 30.8457 34.5693 31.5137 34.4639 32.375L 39.2275 32.375L 39.2275 32.252C 39.1807 31.4258 38.958 30.7871 38.5596 30.3359C 38.1611 29.8789 37.6221 29.6504 36.9424 29.6504ZM 47.3398 29.9492C 47.0938 29.9082 46.8271 29.8877 46.54 29.8877C 45.4736 29.8877 44.75 30.3418 44.3691 31.25L 44.3691 38L 42.7432 38L 42.7432 28.4902L 44.3252 28.4902L 44.3516 29.5889C 44.8848 28.7393 45.6406 28.3145 46.6191 28.3145C 46.9355 28.3145 47.1758 28.3555 47.3398 28.4375L 47.3398 29.9492ZM 54.3623 38C 54.2686 37.8125 54.1924 37.4785 54.1338 36.998C 53.3779 37.7832 52.4756 38.1758 51.4268 38.1758C 50.4893 38.1758 49.7188 37.9121 49.1152 37.3848C 48.5176 36.8516 48.2188 36.1777 48.2188 35.3633C 48.2188 34.373 48.5938 33.6055 49.3438 33.0605C 50.0996 32.5098 51.1602 32.2344 52.5254 32.2344L 54.1074 32.2344L 54.1074 31.4873C 54.1074 30.9189 53.9375 30.4678 53.5977 30.1338C 53.2578 29.7939 52.7568 29.624 52.0947 29.624C 51.5146 29.624 51.0283 29.7705 50.6357 30.0635C 50.2432 30.3564 50.0469 30.7109 50.0469 31.127L 48.4121 31.127C 48.4121 30.6523 48.5791 30.1953 48.9131 29.7559C 49.2529 29.3105 49.71 28.959 50.2842 28.7012C 50.8643 28.4434 51.5 28.3145 52.1914 28.3145C 53.2871 28.3145 54.1455 28.5898 54.7666 29.1406C 55.3877 29.6855 55.71 30.4385 55.7334 31.3994L 55.7334 35.7764C 55.7334 36.6494 55.8447 37.3438 56.0674 37.8594L 56.0674 38L 54.3623 38ZM 51.6641 36.7607C 52.1738 36.7607 52.6572 36.6289 53.1143 36.3652C 53.5713 36.1016 53.9023 35.7588 54.1074 35.3369L 54.1074 33.3857L 52.833 33.3857C 50.8408 33.3857 49.8447 33.9688 49.8447 35.1348C 49.8447 35.6445 50.0146 36.043 50.3545 36.3301C 50.6943 36.6172 51.1309 36.7607 51.6641 36.7607ZM 60.4883 26.1875L 60.4883 28.4902L 62.2637 28.4902L 62.2637 29.7471L 60.4883 29.7471L 60.4883 35.6445C 60.4883 36.0254 60.5674 36.3125 60.7256 36.5059C 60.8838 36.6934 61.1533 36.7871 61.5342 36.7871C 61.7217 36.7871 61.9795 36.752 62.3076 36.6816L 62.3076 38C 61.8799 38.1172 61.4639 38.1758 61.0596 38.1758C 60.333 38.1758 59.7852 37.9561 59.416 37.5166C 59.0469 37.0771 58.8623 36.4531 58.8623 35.6445L 58.8623 29.7471L 57.1309 29.7471L 57.1309 28.4902L 58.8623 28.4902L 58.8623 26.1875L 60.4883 26.1875ZM 65.9375 38L 64.3115 38L 64.3115 28.4902L 65.9375 28.4902L 65.9375 38ZM 64.1797 25.9678C 64.1797 25.7041 64.2588 25.4814 64.417 25.2998C 64.5811 25.1182 64.8213 25.0273 65.1377 25.0273C 65.4541 25.0273 65.6943 25.1182 65.8584 25.2998C 66.0225 25.4814 66.1045 25.7041 66.1045 25.9678C 66.1045 26.2314 66.0225 26.4512 65.8584 26.627C 65.6943 26.8027 65.4541 26.8906 65.1377 26.8906C 64.8213 26.8906 64.5811 26.8027 64.417 26.627C 64.2588 26.4512 64.1797 26.2314 64.1797 25.9678ZM 68.1172 33.1572C 68.1172 32.2256 68.2988 31.3877 68.6621 30.6436C 69.0312 29.8994 69.541 29.3252 70.1914 28.9209C 70.8477 28.5166 71.5947 28.3145 72.4326 28.3145C 73.7275 28.3145 74.7734 28.7627 75.5703 29.6592C 76.373 30.5557 76.7744 31.748 76.7744 33.2363L 76.7744 33.3506C 76.7744 34.2764 76.5957 35.1084 76.2383 35.8467C 75.8867 36.5791 75.3799 37.1504 74.7178 37.5605C 74.0615 37.9707 73.3057 38.1758 72.4502 38.1758C 71.1611 38.1758 70.1152 37.7275 69.3125 36.8311C 68.5156 35.9346 68.1172 34.748 68.1172 33.2715L 68.1172 33.1572ZM 69.752 33.3506C 69.752 34.4053 69.9951 35.252 70.4814 35.8906C 70.9736 36.5293 71.6299 36.8486 72.4502 36.8486C 73.2764 36.8486 73.9326 36.5264 74.4189 35.8818C 74.9053 35.2314 75.1484 34.3232 75.1484 33.1572C 75.1484 32.1143 74.8994 31.2705 74.4014 30.626C 73.9092 29.9756 73.2529 29.6504 72.4326 29.6504C 71.6299 29.6504 70.9824 29.9697 70.4902 30.6084C 69.998 31.2471 69.752 32.1611 69.752 33.3506ZM 80.3516 28.4902L 80.4043 29.6855C 81.1309 28.7715 82.0801 28.3145 83.252 28.3145C 85.2617 28.3145 86.2754 29.4482 86.293 31.7158L 86.293 38L 84.667 38L 84.667 31.707C 84.6611 31.0215 84.5029 30.5146 84.1924 30.1865C 83.8877 29.8584 83.4102 29.6943 82.7598 29.6943C 82.2324 29.6943 81.7695 29.835 81.3711 30.1162C 80.9727 30.3975 80.6621 30.7666 80.4395 31.2236L 80.4395 38L 78.8135 38L 78.8135 28.4902L 80.3516 28.4902Z"/>
</defs>
</svg>
