<svg width="1600" height="400" viewBox="0 0 1600 400" version="1.1" xmlns="http://www.w3.org/2000/svg" xmlns:xlink="http://www.w3.org/1999/xlink" id="HJXxRwh-l5f">
    <style type="text/css">
        @-webkit-keyframes HJ2WRv3Ze9f_Animation{0%{opacity:  1;}88.89%{opacity:  1;}89.26%{opacity:  0;}100%{opacity:  0;}}@keyframes HJ2WRv3Ze9f_Animation{0%{opacity:  1;}88.89%{opacity:  1;}89.26%{opacity:  0;}100%{opacity:  0;}}@-webkit-keyframes S1CZRvnZe5G_Animation{0%{opacity:  1;}88.89%{opacity:  1;}89.26%{opacity:  0;}100%{opacity:  0;}}@keyframes S1CZRvnZe5G_Animation{0%{opacity:  1;}88.89%{opacity:  1;}89.26%{opacity:  0;}100%{opacity:  0;}}@-webkit-keyframes r1qzAv2-eqM_Animation{0%{opacity:  0;}10.74%{opacity:  0;}11.11%{opacity:  1;}21.85%{opacity:  1;}22.22%{opacity:  0;}88.89%{opacity:  0;}100%{opacity:  0;}}@keyframes r1qzAv2-eqM_Animation{0%{opacity:  0;}10.74%{opacity:  0;}11.11%{opacity:  1;}21.85%{opacity:  1;}22.22%{opacity:  0;}88.89%{opacity:  0;}100%{opacity:  0;}}@-webkit-keyframes HJlF0PnWl9M_Animation{0%{opacity:  0;}77.41%{opacity:  0;}77.78%{opacity:  1;}88.89%{opacity:  1;}89.26%{opacity:  0;}100%{opacity:  0;}}@keyframes HJlF0PnWl9M_Animation{0%{opacity:  0;}77.41%{opacity:  0;}77.78%{opacity:  1;}88.89%{opacity:  1;}89.26%{opacity:  0;}100%{opacity:  0;}}@-webkit-keyframes SJcPRv2-xcf_Animation{0%{opacity:  0;}66.30%{opacity:  0;}66.67%{opacity:  1;}77.41%{opacity:  1;}77.78%{opacity:  0;}88.89%{opacity:  0;}100%{opacity:  0;}}@keyframes SJcPRv2-xcf_Animation{0%{opacity:  0;}66.30%{opacity:  0;}66.67%{opacity:  1;}77.41%{opacity:  1;}77.78%{opacity:  0;}88.89%{opacity:  0;}100%{opacity:  0;}}@-webkit-keyframes rJUIRv2Zx5z_Animation{0%{opacity:  0;}55.19%{opacity:  0;}55.56%{opacity:  1;}66.30%{opacity:  1;}66.67%{opacity:  0;}88.89%{opacity:  0;}100%{opacity:  0;}}@keyframes rJUIRv2Zx5z_Animation{0%{opacity:  0;}55.19%{opacity:  0;}55.56%{opacity:  1;}66.30%{opacity:  1;}66.67%{opacity:  0;}88.89%{opacity:  0;}100%{opacity:  0;}}@-webkit-keyframes S1VrRw2blcM_Animation{0%{opacity:  0;}44.07%{opacity:  0;}44.44%{opacity:  1;}55.19%{opacity:  1;}55.56%{opacity:  0;}88.89%{opacity:  0;}100%{opacity:  0;}}@keyframes S1VrRw2blcM_Animation{0%{opacity:  0;}44.07%{opacity:  0;}44.44%{opacity:  1;}55.19%{opacity:  1;}55.56%{opacity:  0;}88.89%{opacity:  0;}100%{opacity:  0;}}@-webkit-keyframes B1VEAw2Wl9f_Animation{0%{opacity:  0;}32.96%{opacity:  0;}33.33%{opacity:  1;}44.07%{opacity:  1;}44.44%{opacity:  0;}88.89%{opacity:  0;}100%{opacity:  0;}}@keyframes B1VEAw2Wl9f_Animation{0%{opacity:  0;}32.96%{opacity:  0;}33.33%{opacity:  1;}44.07%{opacity:  1;}44.44%{opacity:  0;}88.89%{opacity:  0;}100%{opacity:  0;}}@-webkit-keyframes SJ8mCw3Wx9z_Animation{0%{opacity:  0;}21.85%{opacity:  0;}22.22%{opacity:  1;}32.96%{opacity:  1;}33.33%{opacity:  0;}88.89%{opacity:  0;}100%{opacity:  0;}}@keyframes SJ8mCw3Wx9z_Animation{0%{opacity:  0;}21.85%{opacity:  0;}22.22%{opacity:  1;}32.96%{opacity:  1;}33.33%{opacity:  0;}88.89%{opacity:  0;}100%{opacity:  0;}}@-webkit-keyframes rkxzRv2Wx9M_Animation{0%{opacity:  1;}10.74%{opacity:  1;}11.11%{opacity:  0;}88.89%{opacity:  0;}100%{opacity:  0;}}@keyframes rkxzRv2Wx9M_Animation{0%{opacity:  1;}10.74%{opacity:  1;}11.11%{opacity:  0;}88.89%{opacity:  0;}100%{opacity:  0;}}#HJXxRwh-l5f *{-webkit-animation-duration:  9s;animation-duration:  9s;-webkit-animation-iteration-count:  infinite;animation-iteration-count:  infinite;-webkit-animation-timing-function:  cubic-bezier(0, 0, 1, 1);animation-timing-function:  cubic-bezier(0, 0, 1, 1);transform-box:  fill-box;-webkit-transform-origin:  50% 50%;transform-origin:  50% 50%;}#B1NgCDn-lcM{-webkit-transform:  matrix(2,0,0,2,370,1160);transform:  matrix(2,0,0,2,370,1160);}#rkIlAwn-gcG{fill: #FFFFFF;}#BkKgRw2Zecf{-webkit-transform:  translate(468px, -543px);transform:  translate(468px, -543px);}#BJjeRD3ZeqG{-webkit-transform:  translate(468px, -524.75px);transform:  translate(468px, -524.75px);}#Sk6eRvn-g9G{-webkit-transform:  translate(468px, -506.5px);transform:  translate(468px, -506.5px);}#Hy1WCwnWgqM{-webkit-transform:  translate(468px, -488.25px);transform:  translate(468px, -488.25px);}#BJZ-0DnWecz{-webkit-transform:  translate(468px, -470px);transform:  translate(468px, -470px);}#rJmbCvhWxcz{-webkit-transform:  translate(468px, -451.75px);transform:  translate(468px, -451.75px);}#SkS-Av2We9M{-webkit-transform:  translate(468px, -433.5px);transform:  translate(468px, -433.5px);}#S1wbRv2Zxcz{-webkit-transform:  translate(468px, -415.25px);transform:  translate(468px, -415.25px);}#B1YbAP2-e5z{-webkit-transform:  translate(139px, -543px);transform:  translate(139px, -543px);fill: #2D9CDB;}#BJobAP3ZgcG{-webkit-transform:  translate(162px, -490.252px);transform:  translate(162px, -490.252px);fill: #FFFFFF;}#H1pbRwhbg5M{-webkit-transform:  matrix(1,-3.31904e-16,1.80746e-16,1,302,-470.978);transform:  matrix(1,-3.31904e-16,1.80746e-16,1,302,-470.978);}#SkyMCD3-eqz{-webkit-transform:  matrix(1,-3.31904e-16,1.80746e-16,1,-3,-470.978);transform:  matrix(1,-3.31904e-16,1.80746e-16,1,-3,-470.978);}#SyfMCwnbg9z{-webkit-transform:  translate(337px, -497px);transform:  translate(337px, -497px);fill: #0C570A;}#Hy4zCP3Wx9M{-webkit-transform:  translate(-3px, -498px);transform:  translate(-3px, -498px);fill: #0C570A;}#SkHMCwhbg9M{-webkit-transform:  translate(-3px, -498px);transform:  translate(-3px, -498px);}#ryvGAP2We9M{-webkit-transform:  translate(-95px, -543px);transform:  translate(-95px, -543px);fill: #EB5757;fill-opacity: 0.5;}#HyYGCP3Ze9M{-webkit-transform:  translate(468.648px, -539.35px);transform:  translate(468.648px, -539.35px);}#S1hf0v3Wlcf{-webkit-transform:  translate(337px, -497px);transform:  translate(337px, -497px);fill: #0C570A;}#HJAMAw3-g9M{-webkit-transform:  translate(-3px, -498px);transform:  translate(-3px, -498px);fill: #0C570A;}#H117Aw3ZlqM{-webkit-transform:  translate(-3px, -498px);transform:  translate(-3px, -498px);}#Hy-QRvh-xcz{-webkit-transform:  translate(-95px, -525px);transform:  translate(-95px, -525px);fill: #EB5757;fill-opacity: 0.5;}#BkXXRwhbxqz{-webkit-transform:  translate(468.648px, -539.35px);transform:  translate(468.648px, -539.35px);}#SJH7CP3bg9f{-webkit-transform:  translate(468.648px, -521.1px);transform:  translate(468.648px, -521.1px);}#Byu7APhbe5G{-webkit-transform:  translate(337px, -497px);transform:  translate(337px, -497px);fill: #0C570A;}#H1qXRw3WlcM{-webkit-transform:  translate(-3px, -498px);transform:  translate(-3px, -498px);fill: #0C570A;}#rkj7AD2bx9f{-webkit-transform:  translate(-3px, -498px);transform:  translate(-3px, -498px);}#rJ6mAP2Zlcf{-webkit-transform:  translate(-95px, -506px);transform:  translate(-95px, -506px);fill: #EB5757;fill-opacity: 0.5;}#Hky4Cw2-xcM{-webkit-transform:  translate(468.648px, -539.35px);transform:  translate(468.648px, -539.35px);}#rJ-N0P3bl9z{-webkit-transform:  translate(468.648px, -521.1px);transform:  translate(468.648px, -521.1px);}#ByX4CD2-e9G{-webkit-transform:  translate(468.648px, -502.85px);transform:  translate(468.648px, -502.85px);}#ByU4Rv2ZlqG{-webkit-transform:  translate(337px, -497px);transform:  translate(337px, -497px);fill: #0C570A;}#SJuE0P2Zxcf{-webkit-transform:  translate(-3px, -498px);transform:  translate(-3px, -498px);fill: #0C570A;}#S1KVAD2bgqG{-webkit-transform:  translate(-3px, -498px);transform:  translate(-3px, -498px);}#Bkj40v2beqf{-webkit-transform:  translate(-95px, -488px);transform:  translate(-95px, -488px);fill: #EB5757;fill-opacity: 0.5;}#BJpV0DnZlqM{-webkit-transform:  translate(468.648px, -539.35px);transform:  translate(468.648px, -539.35px);}#HJkBCD3bg5G{-webkit-transform:  translate(468.648px, -521.1px);transform:  translate(468.648px, -521.1px);}#S1ZBCD3Wlqz{-webkit-transform:  translate(468.648px, -502.85px);transform:  translate(468.648px, -502.85px);}#HJ7r0vhWe5f{-webkit-transform:  translate(468.648px, -484.6px);transform:  translate(468.648px, -484.6px);}#S1UrRwnZgcf{-webkit-transform:  translate(337px, -497px);transform:  translate(337px, -497px);fill: #0C570A;}#Hk_r0wh-x9f{-webkit-transform:  translate(-3px, -498px);transform:  translate(-3px, -498px);fill: #0C570A;}#SytBRD2Zecf{-webkit-transform:  translate(-3px, -498px);transform:  translate(-3px, -498px);}#HkoB0vnbe9G{-webkit-transform:  translate(-95px, -470px);transform:  translate(-95px, -470px);fill: #EB5757;fill-opacity: 0.5;}#rJTBAwh-x5z{-webkit-transform:  translate(468.648px, -539.35px);transform:  translate(468.648px, -539.35px);}#rkk80PhWe5z{-webkit-transform:  translate(468.648px, -521.1px);transform:  translate(468.648px, -521.1px);}#ByZ8CwhWlcG{-webkit-transform:  translate(468.648px, -502.85px);transform:  translate(468.648px, -502.85px);}#SJXL0v3-lqz{-webkit-transform:  translate(468.648px, -484.6px);transform:  translate(468.648px, -484.6px);}#SkrICP2be9f{-webkit-transform:  translate(468.648px, -466.35px);transform:  translate(468.648px, -466.35px);}#HJu8AD2blqf{-webkit-transform:  translate(337px, -497px);transform:  translate(337px, -497px);fill: #0C570A;}#HkqURwhbg5M{-webkit-transform:  translate(-3px, -498px);transform:  translate(-3px, -498px);fill: #0C570A;}#B1sICD2Zeqz{-webkit-transform:  translate(-3px, -498px);transform:  translate(-3px, -498px);}#Hk6URwhblcz{-webkit-transform:  translate(-95px, -451px);transform:  translate(-95px, -451px);fill: #EB5757;fill-opacity: 0.5;}#SJJw0D2-eqz{-webkit-transform:  translate(468.648px, -539.35px);transform:  translate(468.648px, -539.35px);}#HkbPRPhWg5G{-webkit-transform:  translate(468.648px, -521.1px);transform:  translate(468.648px, -521.1px);}#ryXwAPhbxqG{-webkit-transform:  translate(468.648px, -502.85px);transform:  translate(468.648px, -502.85px);}#rkrD0DhWgqM{-webkit-transform:  translate(468.648px, -484.6px);transform:  translate(468.648px, -484.6px);}#SyDDCDhZg5M{-webkit-transform:  translate(468.648px, -466.35px);transform:  translate(468.648px, -466.35px);}#r1tDRv3bg9G{-webkit-transform:  translate(468.648px, -448.1px);transform:  translate(468.648px, -448.1px);}#HJhvCvh-xqf{-webkit-transform:  translate(337px, -497px);transform:  translate(337px, -497px);fill: #0C570A;}#ByRDAP3-xqf{-webkit-transform:  translate(-3px, -498px);transform:  translate(-3px, -498px);fill: #0C570A;}#ry1dCD2blcz{-webkit-transform:  translate(-3px, -498px);transform:  translate(-3px, -498px);}#HyWuCDhbecG{-webkit-transform:  translate(-95px, -434px);transform:  translate(-95px, -434px);fill: #EB5757;fill-opacity: 0.5;}#B1QOCvnZgqf{-webkit-transform:  translate(468.648px, -539.35px);transform:  translate(468.648px, -539.35px);}#BJB_Av3WeqG{-webkit-transform:  translate(468.648px, -521.1px);transform:  translate(468.648px, -521.1px);}#ryv_RD3Wg5M{-webkit-transform:  translate(468.648px, -502.85px);transform:  translate(468.648px, -502.85px);}#S1tOCwhWg9z{-webkit-transform:  translate(468.648px, -484.6px);transform:  translate(468.648px, -484.6px);}#BkouRwhZxqG{-webkit-transform:  translate(468.648px, -466.35px);transform:  translate(468.648px, -466.35px);}#rka_APh-g9M{-webkit-transform:  translate(468.648px, -448.1px);transform:  translate(468.648px, -448.1px);}#rykFAPnZl9z{-webkit-transform:  translate(468.648px, -429.85px);transform:  translate(468.648px, -429.85px);}#SJzKCPh-x9G{-webkit-transform:  translate(337px, -497px);transform:  translate(337px, -497px);fill: #0C570A;}#Bk4FCP2-e9M{-webkit-transform:  translate(-3px, -498px);transform:  translate(-3px, -498px);fill: #0C570A;}#BJBFAD2Zlqf{-webkit-transform:  translate(-3px, -498px);transform:  translate(-3px, -498px);}#BJvtCv3-eqz{-webkit-transform:  translate(-95px, -415px);transform:  translate(-95px, -415px);fill: #EB5757;fill-opacity: 0.5;}#HyKF0D2bxcz{-webkit-transform:  translate(468.648px, -539.35px);transform:  translate(468.648px, -539.35px);}#S1oFRw2ZxcM{-webkit-transform:  translate(468.648px, -521.1px);transform:  translate(468.648px, -521.1px);}#B1pt0D2-ecz{-webkit-transform:  translate(468.648px, -502.85px);transform:  translate(468.648px, -502.85px);}#ByycRDhbxqM{-webkit-transform:  translate(468.648px, -484.6px);transform:  translate(468.648px, -484.6px);}#r1W9RD2-e5G{-webkit-transform:  translate(468.648px, -466.35px);transform:  translate(468.648px, -466.35px);}#BJQqRDnblcf{-webkit-transform:  translate(468.648px, -448.1px);transform:  translate(468.648px, -448.1px);}#B1B90v3-ecf{-webkit-transform:  translate(468.648px, -429.85px);transform:  translate(468.648px, -429.85px);}#S1v50v2Zgqz{-webkit-transform:  translate(468.648px, -411.6px);transform:  translate(468.648px, -411.6px);}#Hy590DnZl5G{-webkit-transform:  translate(-95px, -543px);transform:  translate(-95px, -543px);}#B1hcRwn-e5G{-webkit-transform:  translate(-94.3523px, -539.35px);transform:  translate(-94.3523px, -539.35px);}#rkRcCP2-xcG{-webkit-transform:  translate(-95px, -524.75px);transform:  translate(-95px, -524.75px);}#SygoAPnbl5f{-webkit-transform:  translate(-94.3523px, -521.1px);transform:  translate(-94.3523px, -521.1px);}#SJMs0v3Wg9f{-webkit-transform:  translate(-95px, -506.5px);transform:  translate(-95px, -506.5px);}#Sy4j0D3be5z{-webkit-transform:  translate(-94.3523px, -502.85px);transform:  translate(-94.3523px, -502.85px);}#rJUiAw3-l9z{-webkit-transform:  translate(-95px, -488.25px);transform:  translate(-95px, -488.25px);}#rJdiAD3-g5G{-webkit-transform:  translate(-94.3523px, -484.6px);transform:  translate(-94.3523px, -484.6px);}#HycsCP2Wg5G{-webkit-transform:  translate(-66.5px, -543px);transform:  translate(-66.5px, -543px);}#Bkno0PnWe9z{-webkit-transform:  translate(-65.8523px, -539.35px);transform:  translate(-65.8523px, -539.35px);}#B1Aj0wh-l5z{-webkit-transform:  translate(-66.5px, -524.75px);transform:  translate(-66.5px, -524.75px);}#B1l3Rwnbx9G{-webkit-transform:  translate(-65.8523px, -521.1px);transform:  translate(-65.8523px, -521.1px);}#rJM3RDhWxcz{-webkit-transform:  translate(-66.5px, -506.5px);transform:  translate(-66.5px, -506.5px);}#rJE20DhZg9G{-webkit-transform:  translate(-65.8523px, -502.85px);transform:  translate(-65.8523px, -502.85px);}#BJL3AvnbxcM{-webkit-transform:  translate(-66.5px, -488.25px);transform:  translate(-66.5px, -488.25px);}#S1_2Awh-ecf{-webkit-transform:  translate(-65.8523px, -484.6px);transform:  translate(-65.8523px, -484.6px);}#ry5hRPnbe5f{-webkit-transform:  translate(-95px, -470px);transform:  translate(-95px, -470px);}#H132AwnZl9f{-webkit-transform:  translate(-94.3523px, -466.35px);transform:  translate(-94.3523px, -466.35px);}#Hk0n0D2Zg9z{-webkit-transform:  translate(-95px, -451.75px);transform:  translate(-95px, -451.75px);}#HyxaRvhWgqz{-webkit-transform:  translate(-94.3523px, -448.1px);transform:  translate(-94.3523px, -448.1px);}#SyMpADnWx5z{-webkit-transform:  translate(-95px, -433.5px);transform:  translate(-95px, -433.5px);}#BkVaADhbg9f{-webkit-transform:  translate(-94.3523px, -429.85px);transform:  translate(-94.3523px, -429.85px);}#rkLaRPn-lqM{-webkit-transform:  translate(-95px, -415.25px);transform:  translate(-95px, -415.25px);}#SJOTRwhbe9f{-webkit-transform:  translate(-94.3523px, -411.6px);transform:  translate(-94.3523px, -411.6px);}#HJ5pCw3Ze9G{-webkit-transform:  translate(-66.5px, -470px);transform:  translate(-66.5px, -470px);}#r136AD3Wg9G{-webkit-transform:  translate(-65.8523px, -466.35px);transform:  translate(-65.8523px, -466.35px);}#SyRp0Pnblqf{-webkit-transform:  translate(-66.5px, -451.75px);transform:  translate(-66.5px, -451.75px);}#BJxAADnZeqf{-webkit-transform:  translate(-65.8523px, -448.1px);transform:  translate(-65.8523px, -448.1px);}#HkGRCDn-x9M{-webkit-transform:  translate(-66.5px, -433.5px);transform:  translate(-66.5px, -433.5px);}#SJNC0v3blqf{-webkit-transform:  translate(-65.8523px, -429.85px);transform:  translate(-65.8523px, -429.85px);}#SkI00vnZgcz{-webkit-transform:  translate(-66.5px, -415.25px);transform:  translate(-66.5px, -415.25px);}#ByuCAD2-g9M{-webkit-transform:  translate(-65.8523px, -411.6px);transform:  translate(-65.8523px, -411.6px);}#rkxzRv2Wx9M{-webkit-animation-name:  rkxzRv2Wx9M_Animation;animation-name:  rkxzRv2Wx9M_Animation;-webkit-transform-origin:  undefined;transform-origin:  undefined;}#r1qzAv2-eqM{-webkit-transform-origin:  undefined;transform-origin:  undefined;-webkit-animation-name:  r1qzAv2-eqM_Animation;animation-name:  r1qzAv2-eqM_Animation;}#SJ8mCw3Wx9z{-webkit-animation-name:  SJ8mCw3Wx9z_Animation;animation-name:  SJ8mCw3Wx9z_Animation;-webkit-transform-origin:  undefined;transform-origin:  undefined;}#B1VEAw2Wl9f{-webkit-animation-name:  B1VEAw2Wl9f_Animation;animation-name:  B1VEAw2Wl9f_Animation;-webkit-transform-origin:  undefined;transform-origin:  undefined;}#S1VrRw2blcM{-webkit-animation-name:  S1VrRw2blcM_Animation;animation-name:  S1VrRw2blcM_Animation;-webkit-transform-origin:  undefined;transform-origin:  undefined;}#rJUIRv2Zx5z{-webkit-animation-name:  rJUIRv2Zx5z_Animation;animation-name:  rJUIRv2Zx5z_Animation;-webkit-transform-origin:  undefined;transform-origin:  undefined;}#SJcPRv2-xcf{-webkit-animation-name:  SJcPRv2-xcf_Animation;animation-name:  SJcPRv2-xcf_Animation;-webkit-transform-origin:  undefined;transform-origin:  undefined;}#HJlF0PnWl9M{-webkit-animation-name:  HJlF0PnWl9M_Animation;animation-name:  HJlF0PnWl9M_Animation;-webkit-transform-origin:  undefined;transform-origin:  undefined;}#SJ8mCw3Wx9z_S1RxW7x5f{-webkit-transform-origin:  undefined;transform-origin:  undefined;}#S1CZRvnZe5G{-webkit-animation-name:  S1CZRvnZe5G_Animation;animation-name:  S1CZRvnZe5G_Animation;-webkit-transform-origin:  undefined;transform-origin:  undefined;}#HJ2WRv3Ze9f{-webkit-animation-name:  HJ2WRv3Ze9f_Animation;animation-name:  HJ2WRv3Ze9f_Animation;-webkit-transform-origin:  undefined;transform-origin:  undefined;}
    </style>
    <title>
        Frame
    </title>
    <desc>
        Created using Figma
    </desc>
    <g id="B1NgCDn-lcM">
        <clipPath id="clip-0" clip-rule="evenodd">
            <path d="M -185 -580L 615 -580L 615 -380L -185 -380L -185 -580Z" fill="#FFFFFF"/>
        </clipPath>
        <g id="S1Hg0DhZlqf" clip-path="url(#clip-0)">
            <path d="M -185 -580L 615 -580L 615 -380L -185 -380L -185 -580Z" id="rkIlAwn-gcG"/>
            <g id="rJvg0Dhbg9G">
                <g id="B1deRvhZl9z">
                    <use xlink:href="#path0_stroke" id="BkKgRw2Zecf"/>
                </g>
                <g id="Sk9x0w2Wl9z">
                    <use xlink:href="#path0_stroke" id="BJjeRD3ZeqG"/>
                </g>
                <g id="rk2x0w2Wl9M">
                    <use xlink:href="#path0_stroke" id="Sk6eRvn-g9G"/>
                </g>
                <g id="Hk0xAv2Wx5f">
                    <use xlink:href="#path0_stroke" id="Hy1WCwnWgqM"/>
                </g>
                <g id="rJgZRDhZx9z">
                    <use xlink:href="#path0_stroke" id="BJZ-0DnWecz"/>
                </g>
                <g id="Byz-Cwn-xqM">
                    <use xlink:href="#path0_stroke" id="rJmbCvhWxcz"/>
                </g>
                <g id="rJE-Rvh-xcM">
                    <use xlink:href="#path0_stroke" id="SkS-Av2We9M"/>
                </g>
                <g id="rkIZ0v2bxqf">
                    <use xlink:href="#path0_stroke" id="S1wbRv2Zxcz"/>
                </g>
            </g>
            <g id="BkuZAvhZg9f">
                <use xlink:href="#path1_fill" id="B1YbAP2-e5z"/>
            </g>
            <g id="B19-0DhWx5f">
                <use xlink:href="#path2_fill" id="BJobAP3ZgcG"/>
            </g>
            <g id="HJ2WRv3Ze9f">
                <use xlink:href="#path3_stroke" id="H1pbRwhbg5M"/>
            </g>
            <g id="S1CZRvnZe5G">
                <use xlink:href="#path3_stroke" id="SkyMCD3-eqz"/>
            </g>
            <g id="rkxzRv2Wx9M">
                <g id="BybM0vh-e5G">
                    <use xlink:href="#path4_fill" id="SyfMCwnbg9z"/>
                </g>
                <g id="H1mzRP3Zg5z">
                    <use xlink:href="#path5_fill" id="Hy4zCP3Wx9M"/>
                    <use xlink:href="#path6_fill" id="SkHMCwhbg9M"/>
                </g>
                <g id="r1LGRPhbl9M">
                    <use xlink:href="#path7_fill" id="ryvGAP2We9M"/>
                </g>
                <g id="HkdzCw3Zgcz">
                    <use xlink:href="#path8_fill" id="HyYGCP3Ze9M"/>
                </g>
            </g>
            <g id="r1qzAv2-eqM">
                <g id="HkjGAw3-e5z">
                    <use xlink:href="#path9_fill" id="S1hf0v3Wlcf"/>
                </g>
                <g id="SJTG0PnWx9z">
                    <use xlink:href="#path10_fill" id="HJAMAw3-g9M"/>
                    <use xlink:href="#path11_fill" id="H117Aw3ZlqM"/>
                </g>
                <g id="ryxQADhWxcf">
                    <use xlink:href="#path7_fill" id="Hy-QRvh-xcz"/>
                </g>
                <g id="rkGX0Dnbl5M">
                    <use xlink:href="#path8_fill" id="BkXXRwhbxqz"/>
                </g>
                <g id="rkVmRDnZlcM">
                    <use xlink:href="#path12_fill" id="SJH7CP3bg9f"/>
                </g>
            </g>
            <g id="SJ8mCw3Wx9z">
                <g id="HywXAvnWl5f">
                    <use xlink:href="#path13_fill" id="Byu7APhbe5G"/>
                </g>
                <g id="B1tmCvnWlcG">
                    <use xlink:href="#path14_fill" id="H1qXRw3WlcM"/>
                    <use xlink:href="#path15_fill" id="rkj7AD2bx9f"/>
                </g>
                <g id="SknQRv2-eqz">
                    <use xlink:href="#path7_fill" id="rJ6mAP2Zlcf"/>
                </g>
                <g id="rkR7Cwnbe5f">
                    <use xlink:href="#path8_fill" id="Hky4Cw2-xcM"/>
                </g>
                <g id="r1eE0P2Ze9G">
                    <use xlink:href="#path12_fill" id="rJ-N0P3bl9z"/>
                </g>
                <g id="rJG4Rwnbl9G">
                    <use xlink:href="#path8_fill" id="ByX4CD2-e9G"/>
                </g>
            </g>
            <g id="B1VEAw2Wl9f">
                <g id="rkB40wnblqz">
                    <use xlink:href="#path16_fill" id="ByU4Rv2ZlqG"/>
                </g>
                <g id="r1PN0Dhbx9M">
                    <use xlink:href="#path17_fill" id="SJuE0P2Zxcf"/>
                    <use xlink:href="#path18_fill" id="S1KVAD2bgqG"/>
                </g>
                <g id="H1c4Aw3bl5M">
                    <use xlink:href="#path7_fill" id="Bkj40v2beqf"/>
                </g>
                <g id="HJ3NRw2Zg9z">
                    <use xlink:href="#path8_fill" id="BJpV0DnZlqM"/>
                </g>
                <g id="B1A40D3Wecf">
                    <use xlink:href="#path12_fill" id="HJkBCD3bg5G"/>
                </g>
                <g id="B1erAPhWg5z">
                    <use xlink:href="#path8_fill" id="S1ZBCD3Wlqz"/>
                </g>
                <g id="rkzSAD2bxqM">
                    <use xlink:href="#path19_fill" id="HJ7r0vhWe5f"/>
                </g>
            </g>
            <g id="S1VrRw2blcM">
                <g id="ryHSRw3-ecf">
                    <use xlink:href="#path20_fill" id="S1UrRwnZgcf"/>
                </g>
                <g id="ByvBCw2bg9M">
                    <use xlink:href="#path21_fill" id="Hk_r0wh-x9f"/>
                    <use xlink:href="#path22_fill" id="SytBRD2Zecf"/>
                </g>
                <g id="HJ9SAv2Wx5G">
                    <use xlink:href="#path7_fill" id="HkoB0vnbe9G"/>
                </g>
                <g id="SyhSAwnZg5M">
                    <use xlink:href="#path8_fill" id="rJTBAwh-x5z"/>
                </g>
                <g id="HyASCD2Zg9z">
                    <use xlink:href="#path12_fill" id="rkk80PhWe5z"/>
                </g>
                <g id="B1l8Rv3ZeqM">
                    <use xlink:href="#path8_fill" id="ByZ8CwhWlcG"/>
                </g>
                <g id="SyfICwhZgcf">
                    <use xlink:href="#path19_fill" id="SJXL0v3-lqz"/>
                </g>
                <g id="H1NI0w2ZgqM">
                    <use xlink:href="#path23_fill" id="SkrICP2be9f"/>
                </g>
            </g>
            <g id="rJUIRv2Zx5z">
                <g id="SkvURw2-g9f">
                    <use xlink:href="#path24_fill" id="HJu8AD2blqf"/>
                </g>
                <g id="H1tICD2WlcM">
                    <use xlink:href="#path25_fill" id="HkqURwhbg5M"/>
                    <use xlink:href="#path26_fill" id="B1sICD2Zeqz"/>
                </g>
                <g id="Sk3LAw2-xcf">
                    <use xlink:href="#path7_fill" id="Hk6URwhblcz"/>
                </g>
                <g id="SyR8RwnWlcz">
                    <use xlink:href="#path8_fill" id="SJJw0D2-eqz"/>
                </g>
                <g id="H1xPADh-e9f">
                    <use xlink:href="#path12_fill" id="HkbPRPhWg5G"/>
                </g>
                <g id="SkMvCv2-x9z">
                    <use xlink:href="#path8_fill" id="ryXwAPhbxqG"/>
                </g>
                <g id="By4vRD3Zecz">
                    <use xlink:href="#path19_fill" id="rkrD0DhWgqM"/>
                </g>
                <g id="HyUDAD3be9f">
                    <use xlink:href="#path23_fill" id="SyDDCDhZg5M"/>
                </g>
                <g id="ry_wAwhZecz">
                    <use xlink:href="#path27_fill" id="r1tDRv3bg9G"/>
                </g>
            </g>
            <g id="SJcPRv2-xcf">
                <g id="S1svAv2-g9M">
                    <use xlink:href="#path28_fill" id="HJhvCvh-xqf"/>
                </g>
                <g id="SJTPRvnbgcz">
                    <use xlink:href="#path29_fill" id="ByRDAP3-xqf"/>
                    <use xlink:href="#path30_fill" id="ry1dCD2blcz"/>
                </g>
                <g id="H1g_Rwnbl9G">
                    <use xlink:href="#path7_fill" id="HyWuCDhbecG"/>
                </g>
                <g id="BJG_0wnbx9M">
                    <use xlink:href="#path8_fill" id="B1QOCvnZgqf"/>
                </g>
                <g id="SyVuAvn-g9M">
                    <use xlink:href="#path12_fill" id="BJB_Av3WeqG"/>
                </g>
                <g id="BkLuCvnZecz">
                    <use xlink:href="#path8_fill" id="ryv_RD3Wg5M"/>
                </g>
                <g id="rJdOCDnbl9M">
                    <use xlink:href="#path19_fill" id="S1tOCwhWg9z"/>
                </g>
                <g id="rJq_CPn-x5f">
                    <use xlink:href="#path23_fill" id="BkouRwhZxqG"/>
                </g>
                <g id="Sy2uAPhWl9f">
                    <use xlink:href="#path27_fill" id="rka_APh-g9M"/>
                </g>
                <g id="BJC_AD2Wl5z">
                    <use xlink:href="#path31_fill" id="rykFAPnZl9z"/>
                </g>
            </g>
            <g id="HJlF0PnWl9M">
                <g id="rkZtRDn-l9G">
                    <use xlink:href="#path28_fill" id="SJzKCPh-x9G"/>
                </g>
                <g id="BkmtRw2Zgcz">
                    <use xlink:href="#path32_fill" id="Bk4FCP2-e9M"/>
                    <use xlink:href="#path33_fill" id="BJBFAD2Zlqf"/>
                </g>
                <g id="B18FAP2-xcz">
                    <use xlink:href="#path7_fill" id="BJvtCv3-eqz"/>
                </g>
                <g id="Skdt0whbe9f">
                    <use xlink:href="#path8_fill" id="HyKF0D2bxcz"/>
                </g>
                <g id="r19FRw3Zg9M">
                    <use xlink:href="#path12_fill" id="S1oFRw2ZxcM"/>
                </g>
                <g id="r1nFRv3bxqf">
                    <use xlink:href="#path8_fill" id="B1pt0D2-ecz"/>
                </g>
                <g id="HkRFADhWl5G">
                    <use xlink:href="#path19_fill" id="ByycRDhbxqM"/>
                </g>
                <g id="r1eqCvhbecf">
                    <use xlink:href="#path23_fill" id="r1W9RD2-e5G"/>
                </g>
                <g id="Hkz9Aw2bxqf">
                    <use xlink:href="#path27_fill" id="BJQqRDnblcf"/>
                </g>
                <g id="BJ4qRw3Ze5f">
                    <use xlink:href="#path31_fill" id="B1B90v3-ecf"/>
                </g>
                <g id="r1I90D3Wx9f">
                    <use xlink:href="#path34_fill" id="S1v50v2Zgqz"/>
                </g>
            </g>
            <g id="Skuc0Phblcf">
                <g id="Hytq0D3Wlcf">
                    <use xlink:href="#path0_stroke" id="Hy590DnZl5G"/>
                </g>
                <g id="r1icCwnZg5M">
                    <use xlink:href="#path35_fill" id="B1hcRwn-e5G"/>
                </g>
                <g id="rk6qRwnbl5M">
                    <use xlink:href="#path0_stroke" id="rkRcCP2-xcG"/>
                </g>
                <g id="rkJoCw3becz">
                    <use xlink:href="#path36_fill" id="SygoAPnbl5f"/>
                </g>
                <g id="H1Ws0P2bxcz">
                    <use xlink:href="#path0_stroke" id="SJMs0v3Wg9f"/>
                </g>
                <g id="SJXo0v3Zgqf">
                    <use xlink:href="#path19_fill" id="Sy4j0D3be5z"/>
                </g>
                <g id="HyBoAPn-gcM">
                    <use xlink:href="#path0_stroke" id="rJUiAw3-l9z"/>
                </g>
                <g id="HJwsAvhZg5z">
                    <use xlink:href="#path36_fill" id="rJdiAD3-g5G"/>
                </g>
                <g id="HktiRP3WlqM">
                    <use xlink:href="#path0_stroke" id="HycsCP2Wg5G"/>
                </g>
                <g id="SyoiRw3-gqM">
                    <use xlink:href="#path19_fill" id="Bkno0PnWe9z"/>
                </g>
                <g id="HJaj0D2Wl5f">
                    <use xlink:href="#path0_stroke" id="B1Aj0wh-l5z"/>
                </g>
                <g id="rykhAw2Wx9M">
                    <use xlink:href="#path37_fill" id="B1l3Rwnbx9G"/>
                </g>
                <g id="SJWhCP3be9f">
                    <use xlink:href="#path0_stroke" id="rJM3RDhWxcz"/>
                </g>
                <g id="SJmhAw2be5G">
                    <use xlink:href="#path35_fill" id="rJE20DhZg9G"/>
                </g>
                <g id="BkHhAvnWlcM">
                    <use xlink:href="#path0_stroke" id="BJL3AvnbxcM"/>
                </g>
                <g id="SkP3AvhZxqz">
                    <use xlink:href="#path12_fill" id="S1_2Awh-ecf"/>
                </g>
                <g id="S1KhRPnZgqf">
                    <use xlink:href="#path0_stroke" id="ry5hRPnbe5f"/>
                </g>
                <g id="BJi2RwnWe5f">
                    <use xlink:href="#path37_fill" id="H132AwnZl9f"/>
                </g>
                <g id="Hkp3AP2bg5M">
                    <use xlink:href="#path0_stroke" id="Hk0n0D2Zg9z"/>
                </g>
                <g id="SykpRv3WecG">
                    <use xlink:href="#path19_fill" id="HyxaRvhWgqz"/>
                </g>
                <g id="r1W6AD3Weqz">
                    <use xlink:href="#path0_stroke" id="SyMpADnWx5z"/>
                </g>
                <g id="S1QTCD2-gcf">
                    <use xlink:href="#path37_fill" id="BkVaADhbg9f"/>
                </g>
                <g id="HkHTCw3ZlcM">
                    <use xlink:href="#path0_stroke" id="rkLaRPn-lqM"/>
                </g>
                <g id="B1vaCv2-ecM">
                    <use xlink:href="#path31_fill" id="SJOTRwhbe9f"/>
                </g>
                <g id="BkYaAwnbl5M">
                    <use xlink:href="#path0_stroke" id="HJ5pCw3Ze9G"/>
                </g>
                <g id="rysTRPnblcG">
                    <use xlink:href="#path38_fill" id="r136AD3Wg9G"/>
                </g>
                <g id="rJT60whZlqG">
                    <use xlink:href="#path0_stroke" id="SyRp0Pnblqf"/>
                </g>
                <g id="BkyCCD3Zgqf">
                    <use xlink:href="#path31_fill" id="BJxAADnZeqf"/>
                </g>
                <g id="rybRCv2be9z">
                    <use xlink:href="#path0_stroke" id="HkGRCDn-x9M"/>
                </g>
                <g id="HkX00P2WlcM">
                    <use xlink:href="#path19_fill" id="SJNC0v3blqf"/>
                </g>
                <g id="HkBC0Dnbe9f">
                    <use xlink:href="#path0_stroke" id="SkI00vnZgcz"/>
                </g>
                <g id="BkvCRv3Wg5M">
                    <use xlink:href="#path12_fill" id="ByuCAD2-g9M"/>
                </g>
            </g>
        </g>
    </g>
    <defs>
        <path id="path0_stroke" d="M 0 0L 0 -0.5L -0.5 -0.5L -0.5 0L 0 0ZM 28.5 0L 29 0L 29 -0.5L 28.5 -0.5L 28.5 0ZM 28.5 18.25L 28.5 18.75L 29 18.75L 29 18.25L 28.5 18.25ZM 0 18.25L -0.5 18.25L -0.5 18.75L 0 18.75L 0 18.25ZM 0 0.5L 28.5 0.5L 28.5 -0.5L 0 -0.5L 0 0.5ZM 28 0L 28 18.25L 29 18.25L 29 0L 28 0ZM 28.5 17.75L 0 17.75L 0 18.75L 28.5 18.75L 28.5 17.75ZM 0.5 18.25L 0.5 0L -0.5 0L -0.5 18.25L 0.5 18.25Z"/>
        <path id="path1_fill" d="M 0 0L 152 0L 152 141L 0 141L 0 0Z"/>
        <path id="path2_fill" d="M 23.7246 12.9395C 23.5664 14.293 23.0654 15.3389 22.2217 16.0771C 21.3838 16.8096 20.2676 17.1758 18.873 17.1758C 17.3613 17.1758 16.1484 16.6338 15.2344 15.5498C 14.3262 14.4658 13.8721 13.0156 13.8721 11.1992L 13.8721 9.96875C 13.8721 8.7793 14.083 7.7334 14.5049 6.83105C 14.9326 5.92871 15.5361 5.2373 16.3154 4.75684C 17.0947 4.27051 17.9971 4.02734 19.0225 4.02734C 20.3818 4.02734 21.4717 4.4082 22.292 5.16992C 23.1123 5.92578 23.5898 6.97461 23.7246 8.31641L 22.0283 8.31641C 21.8818 7.29688 21.5625 6.55859 21.0703 6.10156C 20.584 5.64453 19.9014 5.41602 19.0225 5.41602C 17.9443 5.41602 17.0977 5.81445 16.4824 6.61133C 15.873 7.4082 15.5684 8.54199 15.5684 10.0127L 15.5684 11.252C 15.5684 12.6406 15.8584 13.7451 16.4385 14.5654C 17.0186 15.3857 17.8301 15.7959 18.873 15.7959C 19.8105 15.7959 20.5283 15.585 21.0264 15.1631C 21.5303 14.7354 21.8643 13.9941 22.0283 12.9395L 23.7246 12.9395ZM 25.3506 12.1572C 25.3506 11.2256 25.5322 10.3877 25.8955 9.64355C 26.2646 8.89941 26.7744 8.3252 27.4248 7.9209C 28.0811 7.5166 28.8281 7.31445 29.666 7.31445C 30.9609 7.31445 32.0068 7.7627 32.8037 8.65918C 33.6064 9.55566 34.0078 10.748 34.0078 12.2363L 34.0078 12.3506C 34.0078 13.2764 33.8291 14.1084 33.4717 14.8467C 33.1201 15.5791 32.6133 16.1504 31.9512 16.5605C 31.2949 16.9707 30.5391 17.1758 29.6836 17.1758C 28.3945 17.1758 27.3486 16.7275 26.5459 15.8311C 25.749 14.9346 25.3506 13.748 25.3506 12.2715L 25.3506 12.1572ZM 26.9854 12.3506C 26.9854 13.4053 27.2285 14.252 27.7148 14.8906C 28.207 15.5293 28.8633 15.8486 29.6836 15.8486C 30.5098 15.8486 31.166 15.5264 31.6523 14.8818C 32.1387 14.2314 32.3818 13.3232 32.3818 12.1572C 32.3818 11.1143 32.1328 10.2705 31.6348 9.62598C 31.1426 8.97559 30.4863 8.65039 29.666 8.65039C 28.8633 8.65039 28.2158 8.96973 27.7236 9.6084C 27.2314 10.2471 26.9854 11.1611 26.9854 12.3506ZM 37.5762 7.49023L 37.6201 8.54492C 38.3174 7.72461 39.2578 7.31445 40.4414 7.31445C 41.7715 7.31445 42.6768 7.82422 43.1572 8.84375C 43.4736 8.38672 43.8838 8.01758 44.3877 7.73633C 44.8975 7.45508 45.498 7.31445 46.1895 7.31445C 48.2754 7.31445 49.3359 8.41895 49.3711 10.6279L 49.3711 17L 47.7451 17L 47.7451 10.7246C 47.7451 10.0449 47.5898 9.53809 47.2793 9.2041C 46.9687 8.86426 46.4473 8.69434 45.7148 8.69434C 45.1113 8.69434 44.6104 8.87598 44.2119 9.23926C 43.8135 9.59668 43.582 10.0801 43.5176 10.6895L 43.5176 17L 41.8828 17L 41.8828 10.7686C 41.8828 9.38574 41.2061 8.69434 39.8525 8.69434C 38.7861 8.69434 38.0566 9.14844 37.6641 10.0566L 37.6641 17L 36.0381 17L 36.0381 7.49023L 37.5762 7.49023ZM 59.8652 12.3506C 59.8652 13.7979 59.5342 14.9639 58.8721 15.8486C 58.21 16.7334 57.3135 17.1758 56.1826 17.1758C 55.0283 17.1758 54.1201 16.8096 53.458 16.0771L 53.458 20.6562L 51.832 20.6562L 51.832 7.49023L 53.3174 7.49023L 53.3965 8.54492C 54.0586 7.72461 54.9785 7.31445 56.1562 7.31445C 57.2988 7.31445 58.2012 7.74512 58.8633 8.60645C 59.5312 9.46777 59.8652 10.666 59.8652 12.2012L 59.8652 12.3506ZM 58.2393 12.166C 58.2393 11.0938 58.0107 10.2471 57.5537 9.62598C 57.0967 9.00488 56.4697 8.69434 55.6729 8.69434C 54.6885 8.69434 53.9502 9.13086 53.458 10.0039L 53.458 14.5479C 53.9443 15.415 54.6885 15.8486 55.6904 15.8486C 56.4697 15.8486 57.0879 15.541 57.5449 14.9258C 58.0078 14.3047 58.2393 13.3848 58.2393 12.166ZM 67.8105 16.0596C 67.1777 16.8037 66.249 17.1758 65.0244 17.1758C 64.0107 17.1758 63.2373 16.8828 62.7041 16.2969C 62.1768 15.7051 61.9102 14.832 61.9043 13.6777L 61.9043 7.49023L 63.5303 7.49023L 63.5303 13.6338C 63.5303 15.0752 64.1162 15.7959 65.2881 15.7959C 66.5303 15.7959 67.3564 15.333 67.7666 14.4072L 67.7666 7.49023L 69.3926 7.49023L 69.3926 17L 67.8457 17L 67.8105 16.0596ZM 74.0771 5.1875L 74.0771 7.49023L 75.8525 7.49023L 75.8525 8.74707L 74.0771 8.74707L 74.0771 14.6445C 74.0771 15.0254 74.1562 15.3125 74.3145 15.5059C 74.4727 15.6934 74.7422 15.7871 75.123 15.7871C 75.3105 15.7871 75.5684 15.752 75.8965 15.6816L 75.8965 17C 75.4687 17.1172 75.0527 17.1758 74.6484 17.1758C 73.9219 17.1758 73.374 16.9561 73.0049 16.5166C 72.6357 16.0771 72.4512 15.4531 72.4512 14.6445L 72.4512 8.74707L 70.7197 8.74707L 70.7197 7.49023L 72.4512 7.49023L 72.4512 5.1875L 74.0771 5.1875ZM 81.7061 17.1758C 80.417 17.1758 79.3682 16.7539 78.5596 15.9102C 77.751 15.0605 77.3467 13.9268 77.3467 12.5088L 77.3467 12.21C 77.3467 11.2666 77.5254 10.4258 77.8828 9.6875C 78.2461 8.94336 78.75 8.36328 79.3945 7.94727C 80.0449 7.52539 80.748 7.31445 81.5039 7.31445C 82.7402 7.31445 83.7012 7.72168 84.3867 8.53613C 85.0723 9.35059 85.415 10.5166 85.415 12.0342L 85.415 12.7109L 78.9727 12.7109C 78.9961 13.6484 79.2686 14.4072 79.79 14.9873C 80.3174 15.5615 80.9854 15.8486 81.7939 15.8486C 82.3682 15.8486 82.8545 15.7314 83.2529 15.4971C 83.6514 15.2627 84 14.9521 84.2988 14.5654L 85.292 15.3389C 84.4951 16.5635 83.2998 17.1758 81.7061 17.1758ZM 81.5039 8.65039C 80.8477 8.65039 80.2969 8.89062 79.8516 9.37109C 79.4063 9.8457 79.1309 10.5137 79.0254 11.375L 83.7891 11.375L 83.7891 11.252C 83.7422 10.4258 83.5195 9.78711 83.1211 9.33594C 82.7227 8.87891 82.1836 8.65039 81.5039 8.65039ZM 91.9014 8.94922C 91.6553 8.9082 91.3887 8.8877 91.1016 8.8877C 90.0352 8.8877 89.3115 9.3418 88.9307 10.25L 88.9307 17L 87.3047 17L 87.3047 7.49023L 88.8867 7.49023L 88.9131 8.58887C 89.4463 7.73926 90.2021 7.31445 91.1807 7.31445C 91.4971 7.31445 91.7373 7.35547 91.9014 7.4375L 91.9014 8.94922ZM 14.9531 32.9902L 14.9531 38L 13.2656 38L 13.2656 25.2031L 17.9854 25.2031C 19.3857 25.2031 20.4814 25.5605 21.2725 26.2754C 22.0693 26.9902 22.4678 27.9365 22.4678 29.1143C 22.4678 30.3564 22.0781 31.3145 21.2988 31.9883C 20.5254 32.6562 19.415 32.9902 17.9678 32.9902L 14.9531 32.9902ZM 14.9531 31.6104L 17.9854 31.6104C 18.8877 31.6104 19.5791 31.3994 20.0596 30.9775C 20.54 30.5498 20.7803 29.9346 20.7803 29.1318C 20.7803 28.3701 20.54 27.7607 20.0596 27.3037C 19.5791 26.8467 18.9199 26.6094 18.082 26.5918L 14.9531 26.5918L 14.9531 31.6104ZM 28.9629 29.9492C 28.7168 29.9082 28.4502 29.8877 28.1631 29.8877C 27.0967 29.8877 26.373 30.3418 25.9922 31.25L 25.9922 38L 24.3662 38L 24.3662 28.4902L 25.9482 28.4902L 25.9746 29.5889C 26.5078 28.7393 27.2637 28.3145 28.2422 28.3145C 28.5586 28.3145 28.7988 28.3555 28.9629 28.4375L 28.9629 29.9492ZM 29.8594 33.1572C 29.8594 32.2256 30.041 31.3877 30.4043 30.6436C 30.7734 29.8994 31.2832 29.3252 31.9336 28.9209C 32.5898 28.5166 33.3369 28.3145 34.1748 28.3145C 35.4697 28.3145 36.5156 28.7627 37.3125 29.6592C 38.1152 30.5557 38.5166 31.748 38.5166 33.2363L 38.5166 33.3506C 38.5166 34.2764 38.3379 35.1084 37.9805 35.8467C 37.6289 36.5791 37.1221 37.1504 36.46 37.5605C 35.8037 37.9707 35.0479 38.1758 34.1924 38.1758C 32.9033 38.1758 31.8574 37.7275 31.0547 36.8311C 30.2578 35.9346 29.8594 34.748 29.8594 33.2715L 29.8594 33.1572ZM 31.4941 33.3506C 31.4941 34.4053 31.7373 35.252 32.2236 35.8906C 32.7158 36.5293 33.3721 36.8486 34.1924 36.8486C 35.0186 36.8486 35.6748 36.5264 36.1611 35.8818C 36.6475 35.2314 36.8906 34.3232 36.8906 33.1572C 36.8906 32.1143 36.6416 31.2705 36.1436 30.626C 35.6514 29.9756 34.9951 29.6504 34.1748 29.6504C 33.3721 29.6504 32.7246 29.9697 32.2324 30.6084C 31.7402 31.2471 31.4941 32.1611 31.4941 33.3506ZM 44.3701 36.8486C 44.9502 36.8486 45.457 36.6729 45.8906 36.3213C 46.3242 35.9697 46.5645 35.5303 46.6113 35.0029L 48.1494 35.0029C 48.1201 35.5479 47.9326 36.0664 47.5869 36.5586C 47.2412 37.0508 46.7783 37.4434 46.1982 37.7363C 45.624 38.0293 45.0146 38.1758 44.3701 38.1758C 43.0752 38.1758 42.0439 37.7451 41.2764 36.8838C 40.5146 36.0166 40.1338 34.833 40.1338 33.333L 40.1338 33.0605C 40.1338 32.1348 40.3037 31.3115 40.6436 30.5908C 40.9834 29.8701 41.4697 29.3105 42.1025 28.9121C 42.7412 28.5137 43.4941 28.3145 44.3613 28.3145C 45.4277 28.3145 46.3125 28.6338 47.0156 29.2725C 47.7246 29.9111 48.1025 30.7402 48.1494 31.7598L 46.6113 31.7598C 46.5645 31.1445 46.3301 30.6406 45.9082 30.248C 45.4922 29.8496 44.9766 29.6504 44.3613 29.6504C 43.5352 29.6504 42.8936 29.9492 42.4365 30.5469C 41.9854 31.1387 41.7598 31.9971 41.7598 33.1221L 41.7598 33.4297C 41.7598 34.5254 41.9854 35.3691 42.4365 35.9609C 42.8877 36.5527 43.5322 36.8486 44.3701 36.8486ZM 53.9238 38.1758C 52.6348 38.1758 51.5859 37.7539 50.7773 36.9102C 49.9688 36.0605 49.5645 34.9268 49.5645 33.5088L 49.5645 33.21C 49.5645 32.2666 49.7432 31.4258 50.1006 30.6875C 50.4639 29.9434 50.9678 29.3633 51.6123 28.9473C 52.2627 28.5254 52.9658 28.3145 53.7217 28.3145C 54.958 28.3145 55.9189 28.7217 56.6045 29.5361C 57.29 30.3506 57.6328 31.5166 57.6328 33.0342L 57.6328 33.7109L 51.1904 33.7109C 51.2139 34.6484 51.4863 35.4072 52.0078 35.9873C 52.5352 36.5615 53.2031 36.8486 54.0117 36.8486C 54.5859 36.8486 55.0723 36.7314 55.4707 36.4971C 55.8691 36.2627 56.2178 35.9521 56.5166 35.5654L 57.5098 36.3389C 56.7129 37.5635 55.5176 38.1758 53.9238 38.1758ZM 53.7217 29.6504C 53.0654 29.6504 52.5146 29.8906 52.0693 30.3711C 51.624 30.8457 51.3486 31.5137 51.2432 32.375L 56.0068 32.375L 56.0068 32.252C 55.96 31.4258 55.7373 30.7871 55.3389 30.3359C 54.9404 29.8789 54.4014 29.6504 53.7217 29.6504ZM 65.0596 35.4775C 65.0596 35.0381 64.8926 34.6982 64.5586 34.458C 64.2305 34.2119 63.6533 34.001 62.8271 33.8252C 62.0068 33.6494 61.3535 33.4385 60.8672 33.1924C 60.3867 32.9463 60.0293 32.6533 59.7949 32.3135C 59.5664 31.9736 59.4521 31.5693 59.4521 31.1006C 59.4521 30.3213 59.7803 29.6621 60.4365 29.123C 61.0986 28.584 61.9424 28.3145 62.9678 28.3145C 64.0459 28.3145 64.9189 28.5928 65.5869 29.1494C 66.2607 29.7061 66.5977 30.418 66.5977 31.2852L 64.9629 31.2852C 64.9629 30.8398 64.7725 30.4561 64.3916 30.1338C 64.0166 29.8115 63.542 29.6504 62.9678 29.6504C 62.376 29.6504 61.9131 29.7793 61.5791 30.0371C 61.2451 30.2949 61.0781 30.6318 61.0781 31.0479C 61.0781 31.4404 61.2334 31.7363 61.5439 31.9355C 61.8545 32.1348 62.4141 32.3252 63.2227 32.5068C 64.0371 32.6885 64.6963 32.9053 65.2002 33.1572C 65.7041 33.4092 66.0762 33.7139 66.3164 34.0713C 66.5625 34.4229 66.6855 34.8535 66.6855 35.3633C 66.6855 36.2129 66.3457 36.8955 65.666 37.4111C 64.9863 37.9209 64.1045 38.1758 63.0205 38.1758C 62.2588 38.1758 61.585 38.041 60.999 37.7715C 60.4131 37.502 59.9531 37.127 59.6191 36.6465C 59.291 36.1602 59.127 35.6357 59.127 35.0732L 60.7529 35.0732C 60.7822 35.6182 60.999 36.0518 61.4033 36.374C 61.8135 36.6904 62.3525 36.8486 63.0205 36.8486C 63.6357 36.8486 64.1279 36.7256 64.4971 36.4795C 64.8721 36.2275 65.0596 35.8936 65.0596 35.4775ZM 74.3408 35.4775C 74.3408 35.0381 74.1738 34.6982 73.8398 34.458C 73.5117 34.2119 72.9346 34.001 72.1084 33.8252C 71.2881 33.6494 70.6348 33.4385 70.1484 33.1924C 69.668 32.9463 69.3105 32.6533 69.0762 32.3135C 68.8477 31.9736 68.7334 31.5693 68.7334 31.1006C 68.7334 30.3213 69.0615 29.6621 69.7178 29.123C 70.3799 28.584 71.2236 28.3145 72.249 28.3145C 73.3271 28.3145 74.2002 28.5928 74.8682 29.1494C 75.542 29.7061 75.8789 30.418 75.8789 31.2852L 74.2441 31.2852C 74.2441 30.8398 74.0537 30.4561 73.6729 30.1338C 73.2979 29.8115 72.8232 29.6504 72.249 29.6504C 71.6572 29.6504 71.1943 29.7793 70.8604 30.0371C 70.5264 30.2949 70.3594 30.6318 70.3594 31.0479C 70.3594 31.4404 70.5146 31.7363 70.8252 31.9355C 71.1357 32.1348 71.6953 32.3252 72.5039 32.5068C 73.3184 32.6885 73.9775 32.9053 74.4814 33.1572C 74.9854 33.4092 75.3574 33.7139 75.5977 34.0713C 75.8438 34.4229 75.9668 34.8535 75.9668 35.3633C 75.9668 36.2129 75.627 36.8955 74.9473 37.4111C 74.2676 37.9209 73.3857 38.1758 72.3018 38.1758C 71.54 38.1758 70.8662 38.041 70.2803 37.7715C 69.6943 37.502 69.2344 37.127 68.9004 36.6465C 68.5723 36.1602 68.4082 35.6357 68.4082 35.0732L 70.0342 35.0732C 70.0635 35.6182 70.2803 36.0518 70.6846 36.374C 71.0947 36.6904 71.6338 36.8486 72.3018 36.8486C 72.917 36.8486 73.4092 36.7256 73.7783 36.4795C 74.1533 36.2275 74.3408 35.8936 74.3408 35.4775ZM 77.6543 33.1572C 77.6543 32.2256 77.8359 31.3877 78.1992 30.6436C 78.5684 29.8994 79.0781 29.3252 79.7285 28.9209C 80.3848 28.5166 81.1318 28.3145 81.9697 28.3145C 83.2646 28.3145 84.3105 28.7627 85.1074 29.6592C 85.9102 30.5557 86.3115 31.748 86.3115 33.2363L 86.3115 33.3506C 86.3115 34.2764 86.1328 35.1084 85.7754 35.8467C 85.4238 36.5791 84.917 37.1504 84.2549 37.5605C 83.5986 37.9707 82.8428 38.1758 81.9873 38.1758C 80.6982 38.1758 79.6523 37.7275 78.8496 36.8311C 78.0527 35.9346 77.6543 34.748 77.6543 33.2715L 77.6543 33.1572ZM 79.2891 33.3506C 79.2891 34.4053 79.5322 35.252 80.0186 35.8906C 80.5107 36.5293 81.167 36.8486 81.9873 36.8486C 82.8135 36.8486 83.4697 36.5264 83.9561 35.8818C 84.4424 35.2314 84.6855 34.3232 84.6855 33.1572C 84.6855 32.1143 84.4365 31.2705 83.9385 30.626C 83.4463 29.9756 82.79 29.6504 81.9697 29.6504C 81.167 29.6504 80.5195 29.9697 80.0273 30.6084C 79.5352 31.2471 79.2891 32.1611 79.2891 33.3506ZM 92.9473 29.9492C 92.7012 29.9082 92.4346 29.8877 92.1475 29.8877C 91.0811 29.8877 90.3574 30.3418 89.9766 31.25L 89.9766 38L 88.3506 38L 88.3506 28.4902L 89.9326 28.4902L 89.959 29.5889C 90.4922 28.7393 91.248 28.3145 92.2266 28.3145C 92.543 28.3145 92.7832 28.3555 92.9473 28.4375L 92.9473 29.9492Z"/>
        <path id="path3_stroke" d="M 132.061 1.06066C 132.646 0.474874 132.646 -0.474874 132.061 -1.06066L 122.515 -10.6066C 121.929 -11.1924 120.979 -11.1924 120.393 -10.6066C 119.808 -10.0208 119.808 -9.07107 120.393 -8.48528L 128.879 0L 120.393 8.48528C 119.808 9.07107 119.808 10.0208 120.393 10.6066C 120.979 11.1924 121.929 11.1924 122.515 10.6066L 132.061 1.06066ZM 0 1.5L 131 1.5L 131 -1.5L 0 -1.5L 0 1.5Z"/>
        <path id="path4_fill" d="M 22.801 16.308L 22.801 18L 14.827 18L 14.827 16.308L 17.923 16.308L 17.923 8.784L 15.529 8.784L 15.529 7.488C 16.177 7.38 16.729 7.254 17.185 7.11C 17.653 6.954 18.085 6.768 18.481 6.552L 19.993 6.552L 19.993 16.308L 22.801 16.308ZM 33.594 16.308L 33.594 18L 25.62 18L 25.62 16.308L 28.716 16.308L 28.716 8.784L 26.322 8.784L 26.322 7.488C 26.97 7.38 27.522 7.254 27.978 7.11C 28.446 6.954 28.878 6.768 29.274 6.552L 30.786 6.552L 30.786 16.308L 33.594 16.308Z"/>
        <path id="path5_fill" d="M 37.2416 16.632C 37.5296 16.632 37.7936 16.584 38.0336 16.488C 38.2856 16.392 38.5076 16.254 38.6996 16.074C 38.8916 15.882 39.0416 15.654 39.1496 15.39C 39.2576 15.114 39.3116 14.802 39.3116 14.454C 39.3116 13.77 39.1256 13.26 38.7536 12.924C 38.3936 12.588 37.8896 12.42 37.2416 12.42C 36.8576 12.42 36.4496 12.522 36.0176 12.726C 35.5856 12.918 35.1596 13.26 34.7396 13.752C 34.8716 14.772 35.1596 15.51 35.6036 15.966C 36.0476 16.41 36.5936 16.632 37.2416 16.632ZM 39.9236 8.892C 39.6596 8.64 39.3356 8.436 38.9516 8.28C 38.5796 8.112 38.1896 8.028 37.7816 8.028C 37.3736 8.028 36.9836 8.1 36.6116 8.244C 36.2516 8.388 35.9276 8.628 35.6396 8.964C 35.3636 9.3 35.1356 9.744 34.9556 10.296C 34.7876 10.836 34.6916 11.502 34.6676 12.294C 35.1116 11.862 35.5976 11.526 36.1256 11.286C 36.6536 11.034 37.1696 10.908 37.6736 10.908C 38.1896 10.908 38.6636 10.98 39.0956 11.124C 39.5276 11.268 39.8996 11.49 40.2116 11.79C 40.5356 12.078 40.7876 12.444 40.9676 12.888C 41.1476 13.332 41.2376 13.854 41.2376 14.454C 41.2376 15.03 41.1296 15.552 40.9136 16.02C 40.6976 16.476 40.4036 16.866 40.0316 17.19C 39.6716 17.514 39.2516 17.766 38.7716 17.946C 38.2916 18.126 37.7876 18.216 37.2596 18.216C 36.6596 18.216 36.0836 18.108 35.5316 17.892C 34.9916 17.664 34.5116 17.322 34.0916 16.866C 33.6836 16.41 33.3536 15.828 33.1016 15.12C 32.8616 14.412 32.7416 13.578 32.7416 12.618C 32.7416 11.502 32.8736 10.548 33.1376 9.756C 33.4136 8.964 33.7796 8.316 34.2356 7.812C 34.6916 7.308 35.2076 6.936 35.7836 6.696C 36.3716 6.456 36.9836 6.336 37.6196 6.336C 38.3756 6.336 39.0356 6.462 39.5996 6.714C 40.1756 6.966 40.6556 7.272 41.0396 7.632L 39.9236 8.892ZM 76.5615 15.3C 76.9455 15.624 77.3715 15.912 77.8395 16.164C 78.3195 16.404 78.8895 16.524 79.5495 16.524C 80.2695 16.524 80.8695 16.332 81.3495 15.948C 81.8415 15.564 82.0875 15.024 82.0875 14.328C 82.0875 13.644 81.8595 13.116 81.4035 12.744C 80.9595 12.372 80.3715 12.186 79.6395 12.186C 79.2195 12.186 78.8595 12.24 78.5595 12.348C 78.2595 12.444 77.9115 12.606 77.5155 12.834L 76.5255 12.204L 76.8855 6.552L 83.6355 6.552L 83.6355 8.298L 78.6855 8.298L 78.4335 11.07C 78.7335 10.95 79.0215 10.86 79.2975 10.8C 79.5735 10.728 79.8855 10.692 80.2335 10.692C 80.7735 10.692 81.2835 10.764 81.7635 10.908C 82.2435 11.052 82.6575 11.274 83.0055 11.574C 83.3655 11.862 83.6475 12.234 83.8515 12.69C 84.0675 13.134 84.1755 13.662 84.1755 14.274C 84.1755 14.898 84.0555 15.456 83.8155 15.948C 83.5755 16.44 83.2515 16.854 82.8435 17.19C 82.4355 17.526 81.9675 17.784 81.4395 17.964C 80.9235 18.132 80.3775 18.216 79.8015 18.216C 78.7935 18.216 77.9535 18.06 77.2815 17.748C 76.6215 17.424 76.0635 17.052 75.6075 16.632L 76.5615 15.3Z"/>
        <path id="path6_fill" d="M 57.7115 12.816L 54.5075 12.816L 54.5075 11.304L 57.7115 11.304L 57.7115 7.902L 59.2955 7.902L 59.2955 11.304L 62.4995 11.304L 62.4995 12.816L 59.2955 12.816L 59.2955 16.218L 57.7115 16.218L 57.7115 12.816Z"/>
        <path id="path7_fill" d="M 0 0L 57 0L 57 18L 0 18L 0 0Z"/>
        <path id="path8_fill" d="M 11.2974 11L 10.2076 11L 10.2076 3.77539L 8.02202 4.57812L 8.02202 3.59375L 11.1275 2.42773L 11.2974 2.42773L 11.2974 11ZM 18.0357 11L 16.9458 11L 16.9458 3.77539L 14.7603 4.57812L 14.7603 3.59375L 17.8658 2.42773L 18.0357 2.42773L 18.0357 11Z"/>
        <path id="path9_fill" d="M 24.9755 13.446L 24.9755 10.71C 24.9875 10.362 24.9995 9.984 25.0115 9.576C 25.0355 9.168 25.0595 8.79 25.0835 8.442L 24.9935 8.442C 24.8015 8.742 24.6035 9.042 24.3995 9.342C 24.1955 9.642 23.9915 9.948 23.7875 10.26L 21.3755 13.446L 24.9755 13.446ZM 28.5395 15.048L 26.9195 15.048L 26.9195 18L 24.9755 18L 24.9755 15.048L 19.2695 15.048L 19.2695 13.644L 24.5255 6.534L 26.9195 6.534L 26.9195 13.446L 28.5395 13.446L 28.5395 15.048Z"/>
        <path id="path10_fill" d="M 41.1116 16.308L 41.1116 18L 33.1376 18L 33.1376 16.308L 36.2336 16.308L 36.2336 8.784L 33.8396 8.784L 33.8396 7.488C 34.4876 7.38 35.0396 7.254 35.4956 7.11C 35.9636 6.954 36.3956 6.768 36.7916 6.552L 38.3036 6.552L 38.3036 16.308L 41.1116 16.308ZM 76.5615 15.264C 76.9455 15.612 77.3895 15.912 77.8935 16.164C 78.4095 16.404 78.9795 16.524 79.6035 16.524C 80.3115 16.524 80.8935 16.374 81.3495 16.074C 81.8175 15.762 82.0515 15.336 82.0515 14.796C 82.0515 14.496 81.9855 14.226 81.8535 13.986C 81.7215 13.746 81.5055 13.542 81.2055 13.374C 80.9175 13.206 80.5275 13.08 80.0355 12.996C 79.5555 12.9 78.9615 12.852 78.2535 12.852L 78.2535 11.34C 78.8655 11.34 79.3875 11.298 79.8195 11.214C 80.2515 11.118 80.5995 10.992 80.8635 10.836C 81.1395 10.668 81.3375 10.47 81.4575 10.242C 81.5895 10.014 81.6555 9.768 81.6555 9.504C 81.6555 9.024 81.4695 8.652 81.0975 8.388C 80.7375 8.112 80.2515 7.974 79.6395 7.974C 79.1355 7.974 78.6675 8.076 78.2355 8.28C 77.8155 8.472 77.4135 8.73 77.0295 9.054L 75.9495 7.776C 76.4775 7.344 77.0535 6.996 77.6775 6.732C 78.3015 6.468 78.9855 6.336 79.7295 6.336C 80.3175 6.336 80.8575 6.402 81.3495 6.534C 81.8415 6.666 82.2615 6.864 82.6095 7.128C 82.9695 7.38 83.2455 7.698 83.4375 8.082C 83.6415 8.454 83.7435 8.88 83.7435 9.36C 83.7435 10.008 83.5335 10.548 83.1135 10.98C 82.6935 11.412 82.1295 11.748 81.4215 11.988L 81.4215 12.06C 81.7935 12.156 82.1415 12.288 82.4655 12.456C 82.8015 12.612 83.0895 12.81 83.3295 13.05C 83.5815 13.29 83.7795 13.566 83.9235 13.878C 84.0675 14.19 84.1395 14.532 84.1395 14.904C 84.1395 15.432 84.0195 15.9 83.7795 16.308C 83.5515 16.716 83.2395 17.064 82.8435 17.352C 82.4475 17.628 81.9855 17.844 81.4575 18C 80.9295 18.144 80.3715 18.216 79.7835 18.216C 78.7995 18.216 77.9595 18.06 77.2635 17.748C 76.5675 17.436 76.0095 17.052 75.5895 16.596L 76.5615 15.264Z"/>
        <path id="path11_fill" d="M 57.7115 12.816L 54.5075 12.816L 54.5075 11.304L 57.7115 11.304L 57.7115 7.902L 59.2955 7.902L 59.2955 11.304L 62.4995 11.304L 62.4995 12.816L 59.2955 12.816L 59.2955 16.218L 57.7115 16.218L 57.7115 12.816Z"/>
        <path id="path12_fill" d="M 15.6802 8.13477L 16.8638 8.13477L 16.8638 9.01953L 15.6802 9.01953L 15.6802 11L 14.5904 11L 14.5904 9.01953L 10.7056 9.01953L 10.7056 8.38086L 14.5259 2.46875L 15.6802 2.46875L 15.6802 8.13477ZM 11.9361 8.13477L 14.5904 8.13477L 14.5904 3.95117L 14.4615 4.18555L 11.9361 8.13477Z"/>
        <path id="path13_fill" d="M 22.801 16.308L 22.801 18L 14.827 18L 14.827 16.308L 17.923 16.308L 17.923 8.784L 15.529 8.784L 15.529 7.488C 16.177 7.38 16.729 7.254 17.185 7.11C 17.653 6.954 18.085 6.768 18.481 6.552L 19.993 6.552L 19.993 16.308L 22.801 16.308ZM 33.594 16.308L 33.594 18L 25.62 18L 25.62 16.308L 28.716 16.308L 28.716 8.784L 26.322 8.784L 26.322 7.488C 26.97 7.38 27.522 7.254 27.978 7.11C 28.446 6.954 28.878 6.768 29.274 6.552L 30.786 6.552L 30.786 16.308L 33.594 16.308Z"/>
        <path id="path14_fill" d="M 33.3896 15.3C 33.7736 15.624 34.1996 15.912 34.6676 16.164C 35.1476 16.404 35.7176 16.524 36.3776 16.524C 37.0976 16.524 37.6976 16.332 38.1776 15.948C 38.6696 15.564 38.9156 15.024 38.9156 14.328C 38.9156 13.644 38.6876 13.116 38.2316 12.744C 37.7876 12.372 37.1996 12.186 36.4676 12.186C 36.0476 12.186 35.6876 12.24 35.3876 12.348C 35.0876 12.444 34.7396 12.606 34.3436 12.834L 33.3536 12.204L 33.7136 6.552L 40.4636 6.552L 40.4636 8.298L 35.5136 8.298L 35.2616 11.07C 35.5616 10.95 35.8496 10.86 36.1256 10.8C 36.4016 10.728 36.7136 10.692 37.0616 10.692C 37.6016 10.692 38.1116 10.764 38.5916 10.908C 39.0716 11.052 39.4856 11.274 39.8336 11.574C 40.1936 11.862 40.4756 12.234 40.6796 12.69C 40.8956 13.134 41.0036 13.662 41.0036 14.274C 41.0036 14.898 40.8836 15.456 40.6436 15.948C 40.4036 16.44 40.0796 16.854 39.6716 17.19C 39.2636 17.526 38.7956 17.784 38.2676 17.964C 37.7516 18.132 37.2056 18.216 36.6296 18.216C 35.6216 18.216 34.7816 18.06 34.1096 17.748C 33.4496 17.424 32.8916 17.052 32.4356 16.632L 33.3896 15.3ZM 80.4135 16.632C 80.7015 16.632 80.9655 16.584 81.2055 16.488C 81.4575 16.392 81.6795 16.254 81.8715 16.074C 82.0635 15.882 82.2135 15.654 82.3215 15.39C 82.4295 15.114 82.4835 14.802 82.4835 14.454C 82.4835 13.77 82.2975 13.26 81.9255 12.924C 81.5655 12.588 81.0615 12.42 80.4135 12.42C 80.0295 12.42 79.6215 12.522 79.1895 12.726C 78.7575 12.918 78.3315 13.26 77.9115 13.752C 78.0435 14.772 78.3315 15.51 78.7755 15.966C 79.2195 16.41 79.7655 16.632 80.4135 16.632ZM 83.0955 8.892C 82.8315 8.64 82.5075 8.436 82.1235 8.28C 81.7515 8.112 81.3615 8.028 80.9535 8.028C 80.5455 8.028 80.1555 8.1 79.7835 8.244C 79.4235 8.388 79.0995 8.628 78.8115 8.964C 78.5355 9.3 78.3075 9.744 78.1275 10.296C 77.9595 10.836 77.8635 11.502 77.8395 12.294C 78.2835 11.862 78.7695 11.526 79.2975 11.286C 79.8255 11.034 80.3415 10.908 80.8455 10.908C 81.3615 10.908 81.8355 10.98 82.2675 11.124C 82.6995 11.268 83.0715 11.49 83.3835 11.79C 83.7075 12.078 83.9595 12.444 84.1395 12.888C 84.3195 13.332 84.4095 13.854 84.4095 14.454C 84.4095 15.03 84.3015 15.552 84.0855 16.02C 83.8695 16.476 83.5755 16.866 83.2035 17.19C 82.8435 17.514 82.4235 17.766 81.9435 17.946C 81.4635 18.126 80.9595 18.216 80.4315 18.216C 79.8315 18.216 79.2555 18.108 78.7035 17.892C 78.1635 17.664 77.6835 17.322 77.2635 16.866C 76.8555 16.41 76.5255 15.828 76.2735 15.12C 76.0335 14.412 75.9135 13.578 75.9135 12.618C 75.9135 11.502 76.0455 10.548 76.3095 9.756C 76.5855 8.964 76.9515 8.316 77.4075 7.812C 77.8635 7.308 78.3795 6.936 78.9555 6.696C 79.5435 6.456 80.1555 6.336 80.7915 6.336C 81.5475 6.336 82.2075 6.462 82.7715 6.714C 83.3475 6.966 83.8275 7.272 84.2115 7.632L 83.0955 8.892Z"/>
        <path id="path15_fill" d="M 57.7115 12.816L 54.5075 12.816L 54.5075 11.304L 57.7115 11.304L 57.7115 7.902L 59.2955 7.902L 59.2955 11.304L 62.4995 11.304L 62.4995 12.816L 59.2955 12.816L 59.2955 16.218L 57.7115 16.218L 57.7115 12.816Z"/>
        <path id="path16_fill" d="M 20.4755 15.3C 20.8595 15.624 21.2855 15.912 21.7535 16.164C 22.2335 16.404 22.8035 16.524 23.4635 16.524C 24.1835 16.524 24.7835 16.332 25.2635 15.948C 25.7555 15.564 26.0015 15.024 26.0015 14.328C 26.0015 13.644 25.7735 13.116 25.3175 12.744C 24.8735 12.372 24.2855 12.186 23.5535 12.186C 23.1335 12.186 22.7735 12.24 22.4735 12.348C 22.1735 12.444 21.8255 12.606 21.4295 12.834L 20.4395 12.204L 20.7995 6.552L 27.5495 6.552L 27.5495 8.298L 22.5995 8.298L 22.3475 11.07C 22.6475 10.95 22.9355 10.86 23.2115 10.8C 23.4875 10.728 23.7995 10.692 24.1475 10.692C 24.6875 10.692 25.1975 10.764 25.6775 10.908C 26.1575 11.052 26.5715 11.274 26.9195 11.574C 27.2795 11.862 27.5615 12.234 27.7655 12.69C 27.9815 13.134 28.0895 13.662 28.0895 14.274C 28.0895 14.898 27.9695 15.456 27.7295 15.948C 27.4895 16.44 27.1655 16.854 26.7575 17.19C 26.3495 17.526 25.8815 17.784 25.3535 17.964C 24.8375 18.132 24.2915 18.216 23.7155 18.216C 22.7075 18.216 21.8675 18.06 21.1955 17.748C 20.5355 17.424 19.9775 17.052 19.5215 16.632L 20.4755 15.3Z"/>
        <path id="path17_fill" d="M 41.1116 16.308L 41.1116 18L 33.1376 18L 33.1376 16.308L 36.2336 16.308L 36.2336 8.784L 33.8396 8.784L 33.8396 7.488C 34.4876 7.38 35.0396 7.254 35.4956 7.11C 35.9636 6.954 36.3956 6.768 36.7916 6.552L 38.3036 6.552L 38.3036 16.308L 41.1116 16.308ZM 81.0615 13.446L 81.0615 10.71C 81.0735 10.362 81.0855 9.984 81.0975 9.576C 81.1215 9.168 81.1455 8.79 81.1695 8.442L 81.0795 8.442C 80.8875 8.742 80.6895 9.042 80.4855 9.342C 80.2815 9.642 80.0775 9.948 79.8735 10.26L 77.4615 13.446L 81.0615 13.446ZM 84.6255 15.048L 83.0055 15.048L 83.0055 18L 81.0615 18L 81.0615 15.048L 75.3555 15.048L 75.3555 13.644L 80.6115 6.534L 83.0055 6.534L 83.0055 13.446L 84.6255 13.446L 84.6255 15.048Z"/>
        <path id="path18_fill" d="M 57.7115 12.816L 54.5075 12.816L 54.5075 11.304L 57.7115 11.304L 57.7115 7.902L 59.2955 7.902L 59.2955 11.304L 62.4995 11.304L 62.4995 12.816L 59.2955 12.816L 59.2955 16.218L 57.7115 16.218L 57.7115 12.816Z"/>
        <path id="path19_fill" d="M 11.6021 6.72266L 12.0357 2.46875L 16.4068 2.46875L 16.4068 3.4707L 12.9556 3.4707L 12.6978 5.79688C 13.1158 5.55078 13.5904 5.42773 14.1216 5.42773C 14.899 5.42773 15.5162 5.68555 15.9732 6.20117C 16.4302 6.71289 16.6587 7.40625 16.6587 8.28125C 16.6587 9.16016 16.4205 9.85352 15.9439 10.3613C 15.4712 10.8652 14.8091 11.1172 13.9576 11.1172C 13.2037 11.1172 12.5884 10.9082 12.1119 10.4902C 11.6353 10.0723 11.3638 9.49414 11.2974 8.75586L 12.3228 8.75586C 12.3892 9.24414 12.563 9.61328 12.8443 9.86328C 13.1255 10.1094 13.4966 10.2324 13.9576 10.2324C 14.4615 10.2324 14.856 10.0605 15.1412 9.7168C 15.4302 9.37305 15.5747 8.89844 15.5747 8.29297C 15.5747 7.72266 15.4185 7.26562 15.106 6.92188C 14.7974 6.57422 14.3853 6.40039 13.8697 6.40039C 13.397 6.40039 13.0259 6.50391 12.7564 6.71094L 12.4693 6.94531L 11.6021 6.72266Z"/>
        <path id="path20_fill" d="M 22.801 16.308L 22.801 18L 14.827 18L 14.827 16.308L 17.923 16.308L 17.923 8.784L 15.529 8.784L 15.529 7.488C 16.177 7.38 16.729 7.254 17.185 7.11C 17.653 6.954 18.085 6.768 18.481 6.552L 19.993 6.552L 19.993 16.308L 22.801 16.308ZM 29.4 18.216C 28.092 18.216 27.054 17.7 26.286 16.668C 25.53 15.636 25.152 14.154 25.152 12.222C 25.152 10.278 25.53 8.814 26.286 7.83C 27.054 6.834 28.092 6.336 29.4 6.336C 30.708 6.336 31.74 6.834 32.496 7.83C 33.264 8.814 33.648 10.278 33.648 12.222C 33.648 14.154 33.264 15.636 32.496 16.668C 31.74 17.7 30.708 18.216 29.4 18.216ZM 29.4 7.956C 29.052 7.956 28.734 8.034 28.446 8.19C 28.158 8.334 27.906 8.574 27.69 8.91C 27.486 9.246 27.324 9.69 27.204 10.242C 27.084 10.782 27.024 11.442 27.024 12.222C 27.024 13.002 27.084 13.674 27.204 14.238C 27.324 14.79 27.486 15.24 27.69 15.588C 27.906 15.936 28.158 16.194 28.446 16.362C 28.734 16.518 29.052 16.596 29.4 16.596C 29.736 16.596 30.048 16.518 30.336 16.362C 30.636 16.194 30.888 15.936 31.092 15.588C 31.308 15.24 31.476 14.79 31.596 14.238C 31.716 13.674 31.776 13.002 31.776 12.222C 31.776 11.442 31.716 10.782 31.596 10.242C 31.476 9.69 31.308 9.246 31.092 8.91C 30.888 8.574 30.636 8.334 30.336 8.19C 30.048 8.034 29.736 7.956 29.4 7.956ZM 29.4 13.428C 29.052 13.428 28.758 13.314 28.518 13.086C 28.278 12.858 28.158 12.546 28.158 12.15C 28.158 11.754 28.278 11.442 28.518 11.214C 28.758 10.986 29.052 10.872 29.4 10.872C 29.748 10.872 30.042 10.986 30.282 11.214C 30.522 11.442 30.642 11.754 30.642 12.15C 30.642 12.546 30.522 12.858 30.282 13.086C 30.042 13.314 29.748 13.428 29.4 13.428Z"/>
        <path id="path21_fill" d="M 33.3896 15.264C 33.7736 15.612 34.2176 15.912 34.7216 16.164C 35.2376 16.404 35.8076 16.524 36.4316 16.524C 37.1396 16.524 37.7216 16.374 38.1776 16.074C 38.6456 15.762 38.8796 15.336 38.8796 14.796C 38.8796 14.496 38.8136 14.226 38.6816 13.986C 38.5496 13.746 38.3336 13.542 38.0336 13.374C 37.7456 13.206 37.3556 13.08 36.8636 12.996C 36.3836 12.9 35.7896 12.852 35.0816 12.852L 35.0816 11.34C 35.6936 11.34 36.2156 11.298 36.6476 11.214C 37.0796 11.118 37.4276 10.992 37.6916 10.836C 37.9676 10.668 38.1656 10.47 38.2856 10.242C 38.4176 10.014 38.4836 9.768 38.4836 9.504C 38.4836 9.024 38.2976 8.652 37.9256 8.388C 37.5656 8.112 37.0796 7.974 36.4676 7.974C 35.9636 7.974 35.4956 8.076 35.0636 8.28C 34.6436 8.472 34.2416 8.73 33.8576 9.054L 32.7776 7.776C 33.3056 7.344 33.8816 6.996 34.5056 6.732C 35.1296 6.468 35.8136 6.336 36.5576 6.336C 37.1456 6.336 37.6856 6.402 38.1776 6.534C 38.6696 6.666 39.0896 6.864 39.4376 7.128C 39.7976 7.38 40.0736 7.698 40.2656 8.082C 40.4696 8.454 40.5716 8.88 40.5716 9.36C 40.5716 10.008 40.3616 10.548 39.9416 10.98C 39.5216 11.412 38.9576 11.748 38.2496 11.988L 38.2496 12.06C 38.6216 12.156 38.9696 12.288 39.2936 12.456C 39.6296 12.612 39.9176 12.81 40.1576 13.05C 40.4096 13.29 40.6076 13.566 40.7516 13.878C 40.8956 14.19 40.9676 14.532 40.9676 14.904C 40.9676 15.432 40.8476 15.9 40.6076 16.308C 40.3796 16.716 40.0676 17.064 39.6716 17.352C 39.2756 17.628 38.8136 17.844 38.2856 18C 37.7576 18.144 37.1996 18.216 36.6116 18.216C 35.6276 18.216 34.7876 18.06 34.0916 17.748C 33.3956 17.436 32.8376 17.052 32.4176 16.596L 33.3896 15.264ZM 78.4515 18C 78.4995 16.98 78.5955 16.05 78.7395 15.21C 78.8955 14.358 79.1115 13.554 79.3875 12.798C 79.6755 12.03 80.0355 11.286 80.4675 10.566C 80.8995 9.834 81.4275 9.078 82.0515 8.298L 75.8775 8.298L 75.8775 6.552L 84.3375 6.552L 84.3375 7.812C 83.5935 8.64 82.9875 9.432 82.5195 10.188C 82.0515 10.932 81.6795 11.694 81.4035 12.474C 81.1275 13.254 80.9295 14.094 80.8095 14.994C 80.6895 15.882 80.6055 16.884 80.5575 18L 78.4515 18Z"/>
        <path id="path22_fill" d="M 57.7115 12.816L 54.5075 12.816L 54.5075 11.304L 57.7115 11.304L 57.7115 7.902L 59.2955 7.902L 59.2955 11.304L 62.4995 11.304L 62.4995 12.816L 59.2955 12.816L 59.2955 16.218L 57.7115 16.218L 57.7115 12.816Z"/>
        <path id="path23_fill" d="M 11.2974 11L 10.2076 11L 10.2076 3.77539L 8.02202 4.57812L 8.02202 3.59375L 11.1275 2.42773L 11.2974 2.42773L 11.2974 11ZM 19.8228 7.36133C 19.8228 8.63086 19.606 9.57422 19.1724 10.1914C 18.7388 10.8086 18.0611 11.1172 17.1392 11.1172C 16.229 11.1172 15.5552 10.8164 15.1177 10.2148C 14.6802 9.60938 14.4537 8.70703 14.438 7.50781L 14.438 6.06055C 14.438 4.80664 14.6548 3.875 15.0884 3.26562C 15.522 2.65625 16.2017 2.35156 17.1275 2.35156C 18.0455 2.35156 18.7212 2.64648 19.1548 3.23633C 19.5884 3.82227 19.8111 4.72852 19.8228 5.95508L 19.8228 7.36133ZM 18.7388 5.87891C 18.7388 4.96094 18.6099 4.29297 18.3521 3.875C 18.0943 3.45312 17.6861 3.24219 17.1275 3.24219C 16.5728 3.24219 16.1685 3.45117 15.9146 3.86914C 15.6607 4.28711 15.5298 4.92969 15.522 5.79688L 15.522 7.53125C 15.522 8.45312 15.6548 9.13477 15.9205 9.57617C 16.19 10.0137 16.5962 10.2324 17.1392 10.2324C 17.6744 10.2324 18.0708 10.0254 18.3287 9.61133C 18.5904 9.19727 18.7271 8.54492 18.7388 7.6543L 18.7388 5.87891Z"/>
        <path id="path24_fill" d="M 22.801 16.308L 22.801 18L 14.827 18L 14.827 16.308L 17.923 16.308L 17.923 8.784L 15.529 8.784L 15.529 7.488C 16.177 7.38 16.729 7.254 17.185 7.11C 17.653 6.954 18.085 6.768 18.481 6.552L 19.993 6.552L 19.993 16.308L 22.801 16.308ZM 25.872 15.264C 26.256 15.612 26.7 15.912 27.204 16.164C 27.72 16.404 28.29 16.524 28.914 16.524C 29.622 16.524 30.204 16.374 30.66 16.074C 31.128 15.762 31.362 15.336 31.362 14.796C 31.362 14.496 31.296 14.226 31.164 13.986C 31.032 13.746 30.816 13.542 30.516 13.374C 30.228 13.206 29.838 13.08 29.346 12.996C 28.866 12.9 28.272 12.852 27.564 12.852L 27.564 11.34C 28.176 11.34 28.698 11.298 29.13 11.214C 29.562 11.118 29.91 10.992 30.174 10.836C 30.45 10.668 30.648 10.47 30.768 10.242C 30.9 10.014 30.966 9.768 30.966 9.504C 30.966 9.024 30.78 8.652 30.408 8.388C 30.048 8.112 29.562 7.974 28.95 7.974C 28.446 7.974 27.978 8.076 27.546 8.28C 27.126 8.472 26.724 8.73 26.34 9.054L 25.26 7.776C 25.788 7.344 26.364 6.996 26.988 6.732C 27.612 6.468 28.296 6.336 29.04 6.336C 29.628 6.336 30.168 6.402 30.66 6.534C 31.152 6.666 31.572 6.864 31.92 7.128C 32.28 7.38 32.556 7.698 32.748 8.082C 32.952 8.454 33.054 8.88 33.054 9.36C 33.054 10.008 32.844 10.548 32.424 10.98C 32.004 11.412 31.44 11.748 30.732 11.988L 30.732 12.06C 31.104 12.156 31.452 12.288 31.776 12.456C 32.112 12.612 32.4 12.81 32.64 13.05C 32.892 13.29 33.09 13.566 33.234 13.878C 33.378 14.19 33.45 14.532 33.45 14.904C 33.45 15.432 33.33 15.9 33.09 16.308C 32.862 16.716 32.55 17.064 32.154 17.352C 31.758 17.628 31.296 17.844 30.768 18C 30.24 18.144 29.682 18.216 29.094 18.216C 28.11 18.216 27.27 18.06 26.574 17.748C 25.878 17.436 25.32 17.052 24.9 16.596L 25.872 15.264Z"/>
        <path id="path25_fill" d="M 33.3896 15.3C 33.7736 15.624 34.1996 15.912 34.6676 16.164C 35.1476 16.404 35.7176 16.524 36.3776 16.524C 37.0976 16.524 37.6976 16.332 38.1776 15.948C 38.6696 15.564 38.9156 15.024 38.9156 14.328C 38.9156 13.644 38.6876 13.116 38.2316 12.744C 37.7876 12.372 37.1996 12.186 36.4676 12.186C 36.0476 12.186 35.6876 12.24 35.3876 12.348C 35.0876 12.444 34.7396 12.606 34.3436 12.834L 33.3536 12.204L 33.7136 6.552L 40.4636 6.552L 40.4636 8.298L 35.5136 8.298L 35.2616 11.07C 35.5616 10.95 35.8496 10.86 36.1256 10.8C 36.4016 10.728 36.7136 10.692 37.0616 10.692C 37.6016 10.692 38.1116 10.764 38.5916 10.908C 39.0716 11.052 39.4856 11.274 39.8336 11.574C 40.1936 11.862 40.4756 12.234 40.6796 12.69C 40.8956 13.134 41.0036 13.662 41.0036 14.274C 41.0036 14.898 40.8836 15.456 40.6436 15.948C 40.4036 16.44 40.0796 16.854 39.6716 17.19C 39.2636 17.526 38.7956 17.784 38.2676 17.964C 37.7516 18.132 37.2056 18.216 36.6296 18.216C 35.6216 18.216 34.7816 18.06 34.1096 17.748C 33.4496 17.424 32.8916 17.052 32.4356 16.632L 33.3896 15.3ZM 77.6775 14.85C 77.6775 15.426 77.9055 15.888 78.3615 16.236C 78.8175 16.572 79.4115 16.74 80.1435 16.74C 80.8395 16.74 81.3855 16.59 81.7815 16.29C 82.1775 15.99 82.3755 15.57 82.3755 15.03C 82.3755 14.706 82.2915 14.43 82.1235 14.202C 81.9675 13.974 81.7455 13.776 81.4575 13.608C 81.1815 13.44 80.8515 13.29 80.4675 13.158C 80.0835 13.014 79.6635 12.864 79.2075 12.708C 78.7635 12.972 78.3975 13.278 78.1095 13.626C 77.8215 13.962 77.6775 14.37 77.6775 14.85ZM 80.9535 11.538C 81.7095 10.926 82.0875 10.266 82.0875 9.558C 82.0875 9.054 81.9195 8.64 81.5835 8.316C 81.2475 7.98 80.7615 7.812 80.1255 7.812C 79.5855 7.812 79.1415 7.95 78.7935 8.226C 78.4575 8.49 78.2895 8.874 78.2895 9.378C 78.2895 9.666 78.3555 9.918 78.4875 10.134C 78.6195 10.35 78.8055 10.542 79.0455 10.71C 79.2855 10.866 79.5675 11.016 79.8915 11.16C 80.2155 11.292 80.5695 11.418 80.9535 11.538ZM 75.8415 15.066C 75.8415 14.694 75.9015 14.358 76.0215 14.058C 76.1535 13.758 76.3275 13.494 76.5435 13.266C 76.7595 13.026 77.0055 12.816 77.2815 12.636C 77.5695 12.444 77.8635 12.276 78.1635 12.132L 78.1635 12.06C 77.6835 11.748 77.2755 11.376 76.9395 10.944C 76.6155 10.512 76.4535 9.99 76.4535 9.378C 76.4535 8.91 76.5435 8.49 76.7235 8.118C 76.9155 7.746 77.1735 7.428 77.4975 7.164C 77.8335 6.9 78.2235 6.696 78.6675 6.552C 79.1235 6.408 79.6215 6.336 80.1615 6.336C 81.3015 6.336 82.1955 6.618 82.8435 7.182C 83.5035 7.746 83.8335 8.496 83.8335 9.432C 83.8335 9.972 83.6655 10.464 83.3295 10.908C 82.9935 11.352 82.5915 11.73 82.1235 12.042L 82.1235 12.114C 82.4355 12.27 82.7235 12.438 82.9875 12.618C 83.2635 12.798 83.4975 13.008 83.6895 13.248C 83.8935 13.476 84.0495 13.746 84.1575 14.058C 84.2775 14.358 84.3375 14.706 84.3375 15.102C 84.3375 15.546 84.2415 15.96 84.0495 16.344C 83.8695 16.716 83.5995 17.046 83.2395 17.334C 82.8795 17.61 82.4355 17.826 81.9075 17.982C 81.3795 18.138 80.7795 18.216 80.1075 18.216C 79.4475 18.216 78.8535 18.138 78.3255 17.982C 77.7975 17.826 77.3475 17.61 76.9755 17.334C 76.6155 17.058 76.3335 16.728 76.1295 16.344C 75.9375 15.96 75.8415 15.534 75.8415 15.066Z"/>
        <path id="path26_fill" d="M 57.7115 12.816L 54.5075 12.816L 54.5075 11.304L 57.7115 11.304L 57.7115 7.902L 59.2955 7.902L 59.2955 11.304L 62.4995 11.304L 62.4995 12.816L 59.2955 12.816L 59.2955 16.218L 57.7115 16.218L 57.7115 12.816Z"/>
        <path id="path27_fill" d="M 11.2974 11L 10.2076 11L 10.2076 3.77539L 8.02202 4.57812L 8.02202 3.59375L 11.1275 2.42773L 11.2974 2.42773L 11.2974 11ZM 16.0494 6.20703L 16.8638 6.20703C 17.3755 6.19922 17.7779 6.06445 18.0708 5.80273C 18.3638 5.54102 18.5103 5.1875 18.5103 4.74219C 18.5103 3.74219 18.0122 3.24219 17.0162 3.24219C 16.5474 3.24219 16.1724 3.37695 15.8912 3.64648C 15.6138 3.91211 15.4751 4.26562 15.4751 4.70703L 14.3912 4.70703C 14.3912 4.03125 14.6372 3.4707 15.1294 3.02539C 15.6255 2.57617 16.2544 2.35156 17.0162 2.35156C 17.8208 2.35156 18.4517 2.56445 18.9087 2.99023C 19.3658 3.41602 19.5943 4.00781 19.5943 4.76562C 19.5943 5.13672 19.4732 5.49609 19.231 5.84375C 18.9927 6.19141 18.6665 6.45117 18.2525 6.62305C 18.7212 6.77148 19.0826 7.01758 19.3365 7.36133C 19.5943 7.70508 19.7232 8.125 19.7232 8.62109C 19.7232 9.38672 19.4732 9.99414 18.9732 10.4434C 18.4732 10.8926 17.8228 11.1172 17.022 11.1172C 16.2212 11.1172 15.5689 10.9004 15.065 10.4668C 14.565 10.0332 14.315 9.46094 14.315 8.75L 15.4048 8.75C 15.4048 9.19922 15.5513 9.55859 15.8443 9.82812C 16.1372 10.0977 16.5298 10.2324 17.022 10.2324C 17.5455 10.2324 17.9458 10.0957 18.2232 9.82227C 18.5005 9.54883 18.6392 9.15625 18.6392 8.64453C 18.6392 8.14844 18.4869 7.76758 18.1822 7.50195C 17.8775 7.23633 17.438 7.09961 16.8638 7.0918L 16.0494 7.0918L 16.0494 6.20703Z"/>
        <path id="path28_fill" d="M 21.5915 14.85C 21.5915 15.426 21.8195 15.888 22.2755 16.236C 22.7315 16.572 23.3255 16.74 24.0575 16.74C 24.7535 16.74 25.2995 16.59 25.6955 16.29C 26.0915 15.99 26.2895 15.57 26.2895 15.03C 26.2895 14.706 26.2055 14.43 26.0375 14.202C 25.8815 13.974 25.6595 13.776 25.3715 13.608C 25.0955 13.44 24.7655 13.29 24.3815 13.158C 23.9975 13.014 23.5775 12.864 23.1215 12.708C 22.6775 12.972 22.3115 13.278 22.0235 13.626C 21.7355 13.962 21.5915 14.37 21.5915 14.85ZM 24.8675 11.538C 25.6235 10.926 26.0015 10.266 26.0015 9.558C 26.0015 9.054 25.8335 8.64 25.4975 8.316C 25.1615 7.98 24.6755 7.812 24.0395 7.812C 23.4995 7.812 23.0555 7.95 22.7075 8.226C 22.3715 8.49 22.2035 8.874 22.2035 9.378C 22.2035 9.666 22.2695 9.918 22.4015 10.134C 22.5335 10.35 22.7195 10.542 22.9595 10.71C 23.1995 10.866 23.4815 11.016 23.8055 11.16C 24.1295 11.292 24.4835 11.418 24.8675 11.538ZM 19.7555 15.066C 19.7555 14.694 19.8155 14.358 19.9355 14.058C 20.0675 13.758 20.2415 13.494 20.4575 13.266C 20.6735 13.026 20.9195 12.816 21.1955 12.636C 21.4835 12.444 21.7775 12.276 22.0775 12.132L 22.0775 12.06C 21.5975 11.748 21.1895 11.376 20.8535 10.944C 20.5295 10.512 20.3675 9.99 20.3675 9.378C 20.3675 8.91 20.4575 8.49 20.6375 8.118C 20.8295 7.746 21.0875 7.428 21.4115 7.164C 21.7475 6.9 22.1375 6.696 22.5815 6.552C 23.0375 6.408 23.5355 6.336 24.0755 6.336C 25.2155 6.336 26.1095 6.618 26.7575 7.182C 27.4175 7.746 27.7475 8.496 27.7475 9.432C 27.7475 9.972 27.5795 10.464 27.2435 10.908C 26.9075 11.352 26.5055 11.73 26.0375 12.042L 26.0375 12.114C 26.3495 12.27 26.6375 12.438 26.9015 12.618C 27.1775 12.798 27.4115 13.008 27.6035 13.248C 27.8075 13.476 27.9635 13.746 28.0715 14.058C 28.1915 14.358 28.2515 14.706 28.2515 15.102C 28.2515 15.546 28.1555 15.96 27.9635 16.344C 27.7835 16.716 27.5135 17.046 27.1535 17.334C 26.7935 17.61 26.3495 17.826 25.8215 17.982C 25.2935 18.138 24.6935 18.216 24.0215 18.216C 23.3615 18.216 22.7675 18.138 22.2395 17.982C 21.7115 17.826 21.2615 17.61 20.8895 17.334C 20.5295 17.058 20.2475 16.728 20.0435 16.344C 19.8515 15.96 19.7555 15.534 19.7555 15.066Z"/>
        <path id="path29_fill" d="M 33.3896 15.264C 33.7736 15.612 34.2176 15.912 34.7216 16.164C 35.2376 16.404 35.8076 16.524 36.4316 16.524C 37.1396 16.524 37.7216 16.374 38.1776 16.074C 38.6456 15.762 38.8796 15.336 38.8796 14.796C 38.8796 14.496 38.8136 14.226 38.6816 13.986C 38.5496 13.746 38.3336 13.542 38.0336 13.374C 37.7456 13.206 37.3556 13.08 36.8636 12.996C 36.3836 12.9 35.7896 12.852 35.0816 12.852L 35.0816 11.34C 35.6936 11.34 36.2156 11.298 36.6476 11.214C 37.0796 11.118 37.4276 10.992 37.6916 10.836C 37.9676 10.668 38.1656 10.47 38.2856 10.242C 38.4176 10.014 38.4836 9.768 38.4836 9.504C 38.4836 9.024 38.2976 8.652 37.9256 8.388C 37.5656 8.112 37.0796 7.974 36.4676 7.974C 35.9636 7.974 35.4956 8.076 35.0636 8.28C 34.6436 8.472 34.2416 8.73 33.8576 9.054L 32.7776 7.776C 33.3056 7.344 33.8816 6.996 34.5056 6.732C 35.1296 6.468 35.8136 6.336 36.5576 6.336C 37.1456 6.336 37.6856 6.402 38.1776 6.534C 38.6696 6.666 39.0896 6.864 39.4376 7.128C 39.7976 7.38 40.0736 7.698 40.2656 8.082C 40.4696 8.454 40.5716 8.88 40.5716 9.36C 40.5716 10.008 40.3616 10.548 39.9416 10.98C 39.5216 11.412 38.9576 11.748 38.2496 11.988L 38.2496 12.06C 38.6216 12.156 38.9696 12.288 39.2936 12.456C 39.6296 12.612 39.9176 12.81 40.1576 13.05C 40.4096 13.29 40.6076 13.566 40.7516 13.878C 40.8956 14.19 40.9676 14.532 40.9676 14.904C 40.9676 15.432 40.8476 15.9 40.6076 16.308C 40.3796 16.716 40.0676 17.064 39.6716 17.352C 39.2756 17.628 38.8136 17.844 38.2856 18C 37.7576 18.144 37.1996 18.216 36.6116 18.216C 35.6276 18.216 34.7876 18.06 34.0916 17.748C 33.3956 17.436 32.8376 17.052 32.4176 16.596L 33.3896 15.264ZM 76.5615 15.3C 76.9455 15.624 77.3715 15.912 77.8395 16.164C 78.3195 16.404 78.8895 16.524 79.5495 16.524C 80.2695 16.524 80.8695 16.332 81.3495 15.948C 81.8415 15.564 82.0875 15.024 82.0875 14.328C 82.0875 13.644 81.8595 13.116 81.4035 12.744C 80.9595 12.372 80.3715 12.186 79.6395 12.186C 79.2195 12.186 78.8595 12.24 78.5595 12.348C 78.2595 12.444 77.9115 12.606 77.5155 12.834L 76.5255 12.204L 76.8855 6.552L 83.6355 6.552L 83.6355 8.298L 78.6855 8.298L 78.4335 11.07C 78.7335 10.95 79.0215 10.86 79.2975 10.8C 79.5735 10.728 79.8855 10.692 80.2335 10.692C 80.7735 10.692 81.2835 10.764 81.7635 10.908C 82.2435 11.052 82.6575 11.274 83.0055 11.574C 83.3655 11.862 83.6475 12.234 83.8515 12.69C 84.0675 13.134 84.1755 13.662 84.1755 14.274C 84.1755 14.898 84.0555 15.456 83.8155 15.948C 83.5755 16.44 83.2515 16.854 82.8435 17.19C 82.4355 17.526 81.9675 17.784 81.4395 17.964C 80.9235 18.132 80.3775 18.216 79.8015 18.216C 78.7935 18.216 77.9535 18.06 77.2815 17.748C 76.6215 17.424 76.0635 17.052 75.6075 16.632L 76.5615 15.3Z"/>
        <path id="path30_fill" d="M 57.7115 12.816L 54.5075 12.816L 54.5075 11.304L 57.7115 11.304L 57.7115 7.902L 59.2955 7.902L 59.2955 11.304L 62.4995 11.304L 62.4995 12.816L 59.2955 12.816L 59.2955 16.218L 57.7115 16.218L 57.7115 12.816Z"/>
        <path id="path31_fill" d="M 16.2779 4.69531C 16.2779 5.12109 16.1646 5.5 15.938 5.83203C 15.7154 6.16406 15.4126 6.42383 15.0298 6.61133C 15.4751 6.80273 15.8267 7.08203 16.0845 7.44922C 16.3462 7.81641 16.4771 8.23242 16.4771 8.69727C 16.4771 9.43555 16.2271 10.0234 15.7271 10.4609C 15.231 10.8984 14.5767 11.1172 13.7642 11.1172C 12.9439 11.1172 12.2857 10.8984 11.7896 10.4609C 11.2974 10.0195 11.0513 9.43164 11.0513 8.69727C 11.0513 8.23633 11.1763 7.82031 11.4263 7.44922C 11.6802 7.07812 12.0298 6.79688 12.4751 6.60547C 12.0962 6.41797 11.7974 6.1582 11.5787 5.82617C 11.3599 5.49414 11.2505 5.11719 11.2505 4.69531C 11.2505 3.97656 11.481 3.40625 11.9419 2.98438C 12.4029 2.5625 13.0103 2.35156 13.7642 2.35156C 14.5142 2.35156 15.1197 2.5625 15.5806 2.98438C 16.0455 3.40625 16.2779 3.97656 16.2779 4.69531ZM 15.3931 8.67383C 15.3931 8.19727 15.2408 7.80859 14.9361 7.50781C 14.6353 7.20703 14.2408 7.05664 13.7525 7.05664C 13.2642 7.05664 12.8716 7.20508 12.5747 7.50195C 12.2818 7.79883 12.1353 8.18945 12.1353 8.67383C 12.1353 9.1582 12.2779 9.53906 12.563 9.81641C 12.8521 10.0938 13.2525 10.2324 13.7642 10.2324C 14.272 10.2324 14.6705 10.0938 14.9595 9.81641C 15.2486 9.53516 15.3931 9.1543 15.3931 8.67383ZM 13.7642 3.24219C 13.3384 3.24219 12.9927 3.375 12.7271 3.64062C 12.4654 3.90234 12.3345 4.25977 12.3345 4.71289C 12.3345 5.14648 12.4634 5.49805 12.7212 5.76758C 12.983 6.0332 13.3306 6.16602 13.7642 6.16602C 14.1978 6.16602 14.5435 6.0332 14.8013 5.76758C 15.063 5.49805 15.1939 5.14648 15.1939 4.71289C 15.1939 4.2793 15.0591 3.92578 14.7896 3.65234C 14.5201 3.37891 14.1783 3.24219 13.7642 3.24219Z"/>
        <path id="path32_fill" d="M 34.5056 14.85C 34.5056 15.426 34.7336 15.888 35.1896 16.236C 35.6456 16.572 36.2396 16.74 36.9716 16.74C 37.6676 16.74 38.2136 16.59 38.6096 16.29C 39.0056 15.99 39.2036 15.57 39.2036 15.03C 39.2036 14.706 39.1196 14.43 38.9516 14.202C 38.7956 13.974 38.5736 13.776 38.2856 13.608C 38.0096 13.44 37.6796 13.29 37.2956 13.158C 36.9116 13.014 36.4916 12.864 36.0356 12.708C 35.5916 12.972 35.2256 13.278 34.9376 13.626C 34.6496 13.962 34.5056 14.37 34.5056 14.85ZM 37.7816 11.538C 38.5376 10.926 38.9156 10.266 38.9156 9.558C 38.9156 9.054 38.7476 8.64 38.4116 8.316C 38.0756 7.98 37.5896 7.812 36.9536 7.812C 36.4136 7.812 35.9696 7.95 35.6216 8.226C 35.2856 8.49 35.1176 8.874 35.1176 9.378C 35.1176 9.666 35.1836 9.918 35.3156 10.134C 35.4476 10.35 35.6336 10.542 35.8736 10.71C 36.1136 10.866 36.3956 11.016 36.7196 11.16C 37.0436 11.292 37.3976 11.418 37.7816 11.538ZM 32.6696 15.066C 32.6696 14.694 32.7296 14.358 32.8496 14.058C 32.9816 13.758 33.1556 13.494 33.3716 13.266C 33.5876 13.026 33.8336 12.816 34.1096 12.636C 34.3976 12.444 34.6916 12.276 34.9916 12.132L 34.9916 12.06C 34.5116 11.748 34.1036 11.376 33.7676 10.944C 33.4436 10.512 33.2816 9.99 33.2816 9.378C 33.2816 8.91 33.3716 8.49 33.5516 8.118C 33.7436 7.746 34.0016 7.428 34.3256 7.164C 34.6616 6.9 35.0516 6.696 35.4956 6.552C 35.9516 6.408 36.4496 6.336 36.9896 6.336C 38.1296 6.336 39.0236 6.618 39.6716 7.182C 40.3316 7.746 40.6616 8.496 40.6616 9.432C 40.6616 9.972 40.4936 10.464 40.1576 10.908C 39.8216 11.352 39.4196 11.73 38.9516 12.042L 38.9516 12.114C 39.2636 12.27 39.5516 12.438 39.8156 12.618C 40.0916 12.798 40.3256 13.008 40.5176 13.248C 40.7216 13.476 40.8776 13.746 40.9856 14.058C 41.1056 14.358 41.1656 14.706 41.1656 15.102C 41.1656 15.546 41.0696 15.96 40.8776 16.344C 40.6976 16.716 40.4276 17.046 40.0676 17.334C 39.7076 17.61 39.2636 17.826 38.7356 17.982C 38.2076 18.138 37.6076 18.216 36.9356 18.216C 36.2756 18.216 35.6816 18.138 35.1536 17.982C 34.6256 17.826 34.1756 17.61 33.8036 17.334C 33.4436 17.058 33.1616 16.728 32.9576 16.344C 32.7656 15.96 32.6696 15.534 32.6696 15.066ZM 81.0615 13.446L 81.0615 10.71C 81.0735 10.362 81.0855 9.984 81.0975 9.576C 81.1215 9.168 81.1455 8.79 81.1695 8.442L 81.0795 8.442C 80.8875 8.742 80.6895 9.042 80.4855 9.342C 80.2815 9.642 80.0775 9.948 79.8735 10.26L 77.4615 13.446L 81.0615 13.446ZM 84.6255 15.048L 83.0055 15.048L 83.0055 18L 81.0615 18L 81.0615 15.048L 75.3555 15.048L 75.3555 13.644L 80.6115 6.534L 83.0055 6.534L 83.0055 13.446L 84.6255 13.446L 84.6255 15.048Z"/>
        <path id="path33_fill" d="M 57.7115 12.816L 54.5075 12.816L 54.5075 11.304L 57.7115 11.304L 57.7115 7.902L 59.2955 7.902L 59.2955 11.304L 62.4995 11.304L 62.4995 12.816L 59.2955 12.816L 59.2955 16.218L 57.7115 16.218L 57.7115 12.816Z"/>
        <path id="path34_fill" d="M 11.2974 11L 10.2076 11L 10.2076 3.77539L 8.02202 4.57812L 8.02202 3.59375L 11.1275 2.42773L 11.2974 2.42773L 11.2974 11ZM 20.063 11L 14.4732 11L 14.4732 10.2207L 17.4263 6.93945C 17.8638 6.44336 18.1646 6.04102 18.3287 5.73242C 18.4966 5.41992 18.5806 5.09766 18.5806 4.76562C 18.5806 4.32031 18.4458 3.95508 18.1763 3.66992C 17.9068 3.38477 17.5474 3.24219 17.0982 3.24219C 16.5591 3.24219 16.1392 3.39648 15.8384 3.70508C 15.5415 4.00977 15.3931 4.43555 15.3931 4.98242L 14.3091 4.98242C 14.3091 4.19727 14.5611 3.5625 15.065 3.07812C 15.5728 2.59375 16.2505 2.35156 17.0982 2.35156C 17.8912 2.35156 18.5181 2.56055 18.979 2.97852C 19.44 3.39258 19.6705 3.94531 19.6705 4.63672C 19.6705 5.47656 19.1353 6.47656 18.065 7.63672L 15.7798 10.1152L 20.063 10.1152L 20.063 11Z"/>
        <path id="path35_fill" d="M 15.358 2.46289L 15.358 3.38281L 15.1587 3.38281C 14.315 3.39844 13.6431 3.64844 13.1431 4.13281C 12.6431 4.61719 12.354 5.29883 12.2759 6.17773C 12.7251 5.66211 13.3384 5.4043 14.1158 5.4043C 14.858 5.4043 15.4497 5.66602 15.8912 6.18945C 16.3365 6.71289 16.5591 7.38867 16.5591 8.2168C 16.5591 9.0957 16.3189 9.79883 15.8384 10.3262C 15.3619 10.8535 14.7212 11.1172 13.9165 11.1172C 13.1001 11.1172 12.438 10.8047 11.9302 10.1797C 11.4224 9.55078 11.1685 8.74219 11.1685 7.75391L 11.1685 7.33789C 11.1685 5.76758 11.5025 4.56836 12.1705 3.74023C 12.8423 2.9082 13.8404 2.48242 15.1646 2.46289L 15.358 2.46289ZM 13.9341 6.30664C 13.563 6.30664 13.2212 6.41797 12.9087 6.64062C 12.5962 6.86328 12.3794 7.14258 12.2583 7.47852L 12.2583 7.87695C 12.2583 8.58008 12.4165 9.14648 12.733 9.57617C 13.0494 10.0059 13.4439 10.2207 13.9165 10.2207C 14.4048 10.2207 14.7876 10.041 15.065 9.68164C 15.3462 9.32227 15.4869 8.85156 15.4869 8.26953C 15.4869 7.68359 15.3443 7.21094 15.0591 6.85156C 14.7779 6.48828 14.4029 6.30664 13.9341 6.30664Z"/>
        <path id="path36_fill" d="M 14.6665 11L 13.5767 11L 13.5767 3.77539L 11.3912 4.57812L 11.3912 3.59375L 14.4966 2.42773L 14.6665 2.42773L 14.6665 11Z"/>
        <path id="path37_fill" d="M 12.6802 6.20703L 13.4947 6.20703C 14.0064 6.19922 14.4087 6.06445 14.7017 5.80273C 14.9947 5.54102 15.1412 5.1875 15.1412 4.74219C 15.1412 3.74219 14.6431 3.24219 13.647 3.24219C 13.1783 3.24219 12.8033 3.37695 12.522 3.64648C 12.2447 3.91211 12.106 4.26562 12.106 4.70703L 11.022 4.70703C 11.022 4.03125 11.2681 3.4707 11.7603 3.02539C 12.2564 2.57617 12.8853 2.35156 13.647 2.35156C 14.4517 2.35156 15.0826 2.56445 15.5396 2.99023C 15.9966 3.41602 16.2251 4.00781 16.2251 4.76562C 16.2251 5.13672 16.104 5.49609 15.8619 5.84375C 15.6236 6.19141 15.2974 6.45117 14.8833 6.62305C 15.3521 6.77148 15.7134 7.01758 15.9673 7.36133C 16.2251 7.70508 16.354 8.125 16.354 8.62109C 16.354 9.38672 16.104 9.99414 15.604 10.4434C 15.104 10.8926 14.4537 11.1172 13.6529 11.1172C 12.8521 11.1172 12.1997 10.9004 11.6958 10.4668C 11.1958 10.0332 10.9458 9.46094 10.9458 8.75L 12.0357 8.75C 12.0357 9.19922 12.1822 9.55859 12.4751 9.82812C 12.7681 10.0977 13.1607 10.2324 13.6529 10.2324C 14.1763 10.2324 14.5767 10.0957 14.854 9.82227C 15.1314 9.54883 15.2701 9.15625 15.2701 8.64453C 15.2701 8.14844 15.1177 7.76758 14.813 7.50195C 14.5083 7.23633 14.0689 7.09961 13.4947 7.0918L 12.6802 7.0918L 12.6802 6.20703Z"/>
        <path id="path38_fill" d="M 16.6119 3.07812L 13.0787 11L 11.9419 11L 15.4634 3.35938L 10.8462 3.35938L 10.8462 2.46875L 16.6119 2.46875L 16.6119 3.07812Z"/>
    </defs>
</svg>